<svg width="128" height="128" viewBox="0 0 128 128" fill="none" xmlns="http://www.w3.org/2000/svg">
<circle cx="64" cy="64" r="64" fill="white"/>
<path d="M61.165 10.0601C59.3403 11.1627 56.8853 12.5264 55.6909 13.0487C53.4349 14.0642 37.4105 22.0435 25.8319 27.8756C22.0829 29.7617 17.5709 32.0539 15.7794 32.9243C11.4 35.1295 10.2388 35.971 10.2388 36.9865C10.2388 37.886 11.1014 38.6984 13.0589 39.5689C14.7177 40.3233 14.2201 40.3813 11.8645 39.685C9.87391 39.1047 8.84543 39.1627 8.21507 39.801C7.88331 40.1492 7.91648 40.3233 8.44731 40.7585C8.77908 41.0487 14.2201 44.0083 20.5236 47.3161C26.8272 50.6528 35.7185 55.3534 40.2637 57.7617C57.6815 67.0176 63.7528 70.1803 64.1178 70.1803C64.3168 70.1803 68.1321 68.2653 72.611 65.886C83.4266 60.1699 112.489 44.8497 112.556 44.8497C112.556 44.8497 112.556 53.5544 112.489 64.2031C112.423 74.8808 112.489 84.1078 112.589 84.7751C112.755 85.9067 113.75 87.2124 114.414 87.2124C115.177 87.2124 115.741 86.2259 115.741 84.8622C115.741 83.8466 115.873 83.4404 116.205 83.4404C117.267 83.4404 117.466 81.6414 117.632 69.7161C117.798 60.6342 117.93 58.0518 118.196 58.5451C118.395 58.9223 118.859 59.2124 119.224 59.2124C119.788 59.2124 119.921 58.9803 119.987 57.8487C120.054 57.0943 119.855 55.4694 119.523 54.2218C119.125 52.5679 118.959 50.2176 118.892 45.5751C118.859 41.1648 118.693 38.9596 118.395 38.4953C118.03 37.857 118.063 37.1026 118.528 36.1161C118.693 35.7679 118.428 35.4487 117.499 34.9844C116.072 34.2591 80.4075 16.0083 75.7628 13.658C74.1371 12.8166 70.9853 11.1917 68.7957 10.0601C66.606 8.92849 64.7481 7.99999 64.6486 7.99999C64.5491 8.02901 62.9898 8.92849 61.165 10.0601ZM77.1894 20.9699C84.057 24.5969 92.7492 29.1813 96.4982 31.1544C100.247 33.1565 104.56 35.4197 106.053 36.2031C108.575 37.5088 108.774 37.6829 108.21 38.0311C107.612 38.3793 98.0907 43.457 81.7346 52.1036C76.9903 54.628 71.118 57.7326 68.7293 59.0383L64.3168 61.3886L59.4399 58.8062C56.7194 57.3845 51.7429 54.744 48.3589 52.9161C44.9417 51.1171 37.2115 47.0259 31.2065 43.8342C25.1684 40.6425 20.225 37.944 20.1919 37.828C20.1919 37.7409 22.9787 36.1741 26.4291 34.3751C32.799 31.0383 61.3641 15.9212 63.1556 14.9347C63.7197 14.6446 64.2837 14.3834 64.4164 14.3834C64.5822 14.3834 70.3218 17.343 77.1894 20.9699Z" fill="black"/>
<path d="M59.3072 20.7378C55.0274 23.03 33.8607 34.23 29.0832 36.7254C28.0216 37.2767 27.159 37.799 27.159 37.886C27.1922 37.9731 30.1449 39.5979 33.728 41.4839C41.1264 45.401 59.5726 55.1793 62.2931 56.6591C63.2884 57.1813 64.2173 57.6166 64.3169 57.6166C64.4496 57.6166 65.5776 57.0363 66.8383 56.3399C68.099 55.6435 72.7769 53.1482 77.2558 50.7979C87.9718 45.1399 101.475 37.857 101.475 37.7409C101.475 37.6829 100.181 36.9575 98.5884 36.1161C96.9627 35.2746 92.4507 32.8663 88.5359 30.7772C76.5591 24.3648 64.6818 18.1554 64.3832 18.1554C64.2505 18.1554 61.9613 19.3161 59.3072 20.7378ZM77.1894 31.0674C84.1565 34.7233 89.8629 37.799 89.8629 37.886C89.8297 37.9731 88.005 38.9596 85.7822 40.0912C83.5594 41.2228 77.853 44.1824 73.1087 46.7067C67.8336 49.4922 64.3169 51.1751 63.9851 51.0881C63.4211 50.885 40.5956 38.9016 39.6003 38.2922C39.2021 38.0311 39.1026 37.7699 39.3017 37.6249C39.4675 37.4798 44.9749 34.5202 51.5439 31.0674C58.1128 27.6145 63.6202 24.6549 63.8192 24.5098C63.9851 24.3648 64.2173 24.2777 64.3169 24.3067C64.4164 24.3648 70.2223 27.3824 77.1894 31.0674Z" fill="#A7DB17"/>
<path d="M105.456 52.5099L103.424 54.6788L102.47 68.9036L102.304 83.7596L95.1047 87.5897C91.1567 89.7078 84.8531 93.0446 81.1042 95.0176L75.1987 98.7461L74.2698 101.807V104.97L75.1987 104.448C76.2604 103.809 82.0331 100.734 92.1852 95.3078C106.219 87.8508 107.878 86.9513 108.176 86.6902C108.309 86.5741 108.409 78.4788 108.375 68.7296L108.276 51.0301L105.456 52.5099Z" fill="#A7DB17"/>
<path d="M12.289 52.6469C11.8243 53.4288 11.6915 55.0282 11.4592 62.8828C11.2932 67.9652 11.2268 72.7278 11.3264 73.4031L11.5256 74.647L10.6957 73.5808C9.99868 72.6922 9.83272 72.5856 9.53398 73.0477C9.33482 73.3675 9.26844 74.2561 9.36802 75.1801C9.46759 76.0687 9.69994 79.6228 9.86591 83.1414C10.0651 86.6245 10.2974 89.8587 10.397 90.3563C10.5298 90.8539 11.0277 91.387 11.6915 91.6713C13.2184 92.3822 45.681 110.97 54.8755 116.444C56.0704 117.154 56.3359 117.19 56.8006 116.799C57.7964 115.911 57.4313 114.596 55.6721 112.854C54.7427 111.93 53.8797 110.722 53.7137 110.153C53.4482 108.98 53.521 111.42 30.0205 96.2435L16.2057 88.1917L16.5709 72.941C16.5377 66.1526 16.3717 60.6082 16.2057 60.6082C15.8406 60.6082 15.5087 61.4967 15.5087 62.4919C15.5087 62.9184 15.3759 63.4515 15.2432 63.7003C15.1104 63.9135 15.0772 61.71 15.1436 58.7956C15.2432 54.3529 15.1768 53.3577 14.7121 52.6114C14.015 51.474 13.0192 51.474 12.289 52.6469Z" fill="black"/>
<path d="M21.718 64.5658C21.3199 65.1171 21.2204 67.0031 21.154 74.8953L21.0545 84.5865L22.7133 85.486C26.3296 87.4591 50.5486 100.255 51.4112 100.661C52.141 100.98 52.5392 101.009 53.07 100.777C54.762 99.9648 55.6578 97.0052 54.4634 96.0767C54.1317 95.8156 49.0888 93.1171 43.2497 90.0415C37.4106 86.9658 31.3393 83.7451 29.7468 82.8746L26.8272 81.3078V74.3441C26.8272 69.9917 26.6945 67.4384 26.4955 67.5544C26.3296 67.6415 26.0974 68.5119 25.9647 69.4694C25.8319 70.3979 25.6329 71.2684 25.5002 71.3264C25.3675 71.4135 25.1684 70.1948 25.1021 68.628C24.9362 65.3492 24.3058 63.9275 23.0119 63.9275C22.5475 63.9275 21.9835 64.1886 21.718 64.5658Z" fill="#A7DB17"/>
<path d="M55.0243 89.85C55.4141 89.2942 55.4852 87.4072 55.4327 79.5149L55.3863 69.8234L53.714 68.9431C50.0684 67.0119 25.6588 54.4961 24.7902 54.0999C24.0555 53.7892 23.657 53.7647 23.1297 54.0029C21.4501 54.8348 20.599 57.8045 21.8072 58.7191C22.1429 58.9764 27.2259 61.6165 33.1109 64.6246C38.9958 67.6327 45.1151 70.7832 46.7205 71.6353L49.6634 73.1684L49.7683 80.1315C49.8339 84.4834 50.005 87.0351 50.2023 86.9167C50.3669 86.8278 50.586 85.9547 50.7042 84.9957C50.823 84.0658 51.0089 83.1931 51.1407 83.1335C51.2721 83.045 51.4895 84.2612 51.5794 85.8272C51.7947 89.1037 52.4464 90.5181 53.7402 90.5032C54.2046 90.4979 54.7646 90.2302 55.0243 89.85Z" fill="#A7DB17"/>
<path d="M73.2819 90.4348C73.0362 89.8674 72.4285 87.98 73.2819 80.2487L73.2819 71.9793L76.453 70.0225C79.4854 68.3422 99.7457 55.7781 100.462 55.4404C101.065 55.1787 100.462 56.2212 100.462 57.399C101.681 58.312 101.495 61.2517 100.462 62.0777C100.174 62.3103 97.7946 64.3849 92.9109 66.9901C88.0273 69.5954 82.9469 72.3265 81.6113 73.068L79.1662 74.3991L78.3677 81.2168C77.8687 85.4778 77.4729 87.9684 77.3318 87.8409C77.213 87.7442 77.1326 86.8758 77.1394 85.9292C77.1429 85.0109 77.0883 84.1449 76.9919 84.0788C76.899 83.9844 76.6048 85.1636 76.3736 86.693C75.8689 89.8915 75.2168 91.2396 74.2128 91.1497C73.8523 91.1174 73.4446 90.8225 73.2819 90.4348Z" fill="#A7DB17"/>
<path d="M66.0088 75.229C64.8144 76.2736 64.7149 77.086 64.3168 88.315C64.1841 93.0155 63.9518 96.9036 63.8523 97.0197C63.7528 97.1067 63.6532 96.5845 63.6532 95.8881C63.6532 94.4083 63.0892 92.4352 62.6579 92.4352C62.0276 92.4352 61.6958 94.5534 61.4968 99.544C61.3972 102.417 61.2313 106.885 61.1318 109.467C60.9659 113.559 61.0323 114.197 61.4636 114.197C61.7622 114.197 62.1271 113.617 62.4921 112.601C62.7575 111.731 63.0561 111.005 63.0892 111.005C63.1224 111.005 63.1556 112.746 63.1888 114.864C63.2219 119.101 63.5205 120 64.8476 120C66.042 120 67.4354 119.333 78.5827 113.239C90.2609 106.856 92.8819 105.347 95.6687 103.403C96.7636 102.62 100.645 100.24 104.328 98.0933C107.977 95.9751 111.229 93.886 111.56 93.4798C111.859 93.0736 112.987 92.3482 114.082 91.8549C116.238 90.8974 116.869 90.2591 116.371 89.4756C115.807 88.5471 114.148 88.8373 111.726 90.2591C110.499 90.9845 109.404 91.5648 109.304 91.5648C109.205 91.5648 109.105 91.3036 109.105 90.9845C109.105 90.4041 109.105 90.4041 107.712 91.0135C106.916 91.3617 101.574 94.1181 95.8346 97.1648C75.9618 107.668 71.118 110.193 70.6535 110.367C70.2554 110.512 70.2222 108.162 70.3881 93.857C70.554 79.9295 70.5208 77.2891 70.1227 77.7244C69.8905 78.0145 69.5255 79.0591 69.2933 80.0746C69.0942 81.0611 68.7624 82.0767 68.5966 82.3088C68.3311 82.628 68.298 82.5699 68.4307 82.1347C68.497 81.8155 68.6629 80.3067 68.7956 78.7979C69.0942 74.7938 68.0326 73.4591 66.0088 75.229Z" fill="black"/>
</svg>
