<svg width="79" height="248" viewBox="0 0 79 248" fill="none" xmlns="http://www.w3.org/2000/svg">
<path d="M67.0951 207.517C62.6311 214.745 58.1672 221.974 53.7032 229.203C55.0292 208.025 38.9832 192.206 30.3012 174.054C26.2212 165.524 23.8742 154.523 29.1552 145.908C33.5582 138.727 42.5501 137.833 49.8911 135.449C57.0251 133.133 63.7192 129.655 66.8112 122.413C70.5692 113.615 66.5721 104.74 61.0491 97.737C54.0591 88.875 44.4712 81.66 36.1602 74.076C28.7472 67.311 18.5802 60.252 14.4472 50.785C9.84217 40.236 16.0491 28.206 24.7871 21.878C34.9581 14.512 48.2972 13.163 60.4582 12.969C68.3472 12.844 68.8102 0.563928 60.8842 0.689928C40.3002 1.01693 17.3111 5.54201 5.9451 24.697C0.951097 33.115 -1.02888 43.41 2.12112 52.826C5.54012 63.047 13.7471 70.202 21.4701 77.25C30.6821 85.656 40.5851 93.692 49.1431 102.766C52.6311 106.464 58.0781 112.651 55.3181 118.15C53.5741 121.624 48.9761 122.906 45.5691 123.964C37.3771 126.508 28.6641 128.168 22.4701 134.619C15.9091 141.452 13.3891 151.196 13.9661 160.483C15.4211 183.917 38.7142 200.885 41.2132 223.29C34.5662 217.286 28.2142 210.962 22.1602 204.325C16.8302 198.481 7.84318 206.859 13.1762 212.706C24.4972 225.118 36.8722 236.385 50.1702 246.645C52.8052 248.678 57.0262 247.213 58.6232 244.627C64.9372 234.402 71.2522 224.178 77.5672 213.953C81.7152 207.232 71.2621 200.769 67.0951 207.517Z" fill="#231F20"/>
</svg>
