<svg width="135" height="92" viewBox="0 0 135 92" fill="none" xmlns="http://www.w3.org/2000/svg">
<path d="M26.0418 91.8426C16.5084 88.8181 7.96539 83.6995 0.95115 76.5604C-0.510442 75.0726 -0.240768 72.876 1.43886 71.6944C8.09321 67.013 14.7475 62.3312 21.4019 57.6493C24.6394 55.3716 27.8618 60.6118 24.6273 62.8869C21.0606 65.3962 17.4943 67.9055 13.9275 70.4148C52.5404 74.8035 96.0027 65.1305 118.277 30.5805C123.82 21.9832 127.503 12.4704 128.955 2.34328C129.517 -1.58121 135.521 -0.197004 134.964 3.69547C132.239 22.7121 121.692 39.9393 107.242 52.4186C91.0356 66.4147 70.6725 74.0361 49.5496 76.6159C36.8343 78.1687 23.9963 77.8205 11.3001 76.2718C9.7648 76.0847 9.04853 75.0586 8.96633 73.9061C8.60645 74.1592 8.24657 74.4122 7.88668 74.6653C13.5416 79.7109 20.1052 83.5324 27.3971 85.8456C31.1534 87.0377 29.8206 93.0412 26.0418 91.8426Z" fill="#231F20"/>
</svg>
