<svg width="247" height="240" viewBox="0 0 247 240" fill="none" xmlns="http://www.w3.org/2000/svg">
<path d="M141.655 0.118317C138.893 0.253693 125.735 0.49736 112.414 0.659805C99.0934 0.82225 83.6066 1.06593 78.0292 1.20129C60.4848 1.60742 37.3901 1.98647 19.0064 2.14891L1.27251 2.31136L0.649792 3.0153L0 3.71924L0.162448 14.1701C0.243672 19.9099 0.487344 28.6279 0.731017 33.5555C0.947614 38.4561 1.24544 46.5785 1.40788 51.5602C1.57033 56.5419 1.814 63.4189 1.94938 66.8574C2.08475 70.2688 2.32842 77.3353 2.49087 82.5607C2.86992 94.9339 2.97822 98.0745 3.43849 107.469C3.65508 111.774 3.89875 117.27 3.97998 119.653C4.08828 122.036 4.44025 129.887 4.81929 137.116C5.17127 144.345 5.60446 153.171 5.73983 156.745C6.36255 172.503 7.22894 189.749 7.63506 195.462C7.79751 197.547 8.2307 203.585 8.58267 208.864C10.3425 233.854 10.7757 238.159 11.4797 239.052L11.9941 239.729L93.9492 239.702C139.029 239.702 176.392 239.594 176.96 239.513L178.043 239.323L180.236 233.637C183.16 226.084 185.218 222.049 189.144 216.174L191.039 213.331L191.635 215.904C192.988 221.752 193.151 230.009 192.014 235.939C191.716 237.509 191.472 239.052 191.472 239.377V240H199.351C203.764 240 209.369 239.81 212.022 239.594C214.648 239.404 218.06 239.134 219.63 239.025C221.2 238.944 222.662 238.755 222.906 238.619C223.962 238.078 227.833 231.174 229.647 226.598C232.274 220.046 233.33 215.497 233.6 209.676C233.952 202.691 232.274 192.159 229.81 185.851L228.889 183.549L230.162 182.168C233.33 178.703 237.174 174.046 238.014 172.638C241.344 167.061 243.618 161.646 244.782 156.61C247.327 145.509 246.271 131.485 242.129 121.088C240.152 116.106 236.687 109.96 233.6 105.98C228.835 99.8073 224.341 95.8815 219.088 93.2552C217.816 92.6054 216.733 92.0639 216.679 92.0098C216.597 91.9286 216.949 91.4954 217.437 91.0351C218.574 89.925 219.007 89.0857 219.522 86.8385C220.632 82.1546 218.818 75.9003 215.487 72.8409C214.865 72.2723 213.024 70.9186 211.372 69.8356C208.123 67.7238 205.605 65.26 204.414 63.0669C204.035 62.3089 202.952 59.3036 202.058 56.3253C199.865 49.2589 198.809 47.1199 195.994 43.9793C193.286 40.974 189.387 38.6456 185.083 37.4543C182.375 36.6962 177.556 36.642 174.144 37.3189C167.917 38.5373 161.501 41.5696 157.331 45.2518L155.327 47.0117L155.003 44.0334C154.84 42.3819 154.434 39.4849 154.136 37.5626C153.405 32.9328 152.972 28.6009 151.645 12.4373C150.833 2.2572 150.562 0.632736 149.588 0.280762C148.775 -0.0441284 146.339 -0.0712128 141.655 0.118317ZM148.071 2.17599C148.396 2.25722 148.721 2.52795 148.83 2.74455C148.911 2.98824 149.154 5.80399 149.398 8.99879C149.75 14.2784 149.75 14.874 149.371 15.2531C148.748 15.9028 146.122 16.0111 124.598 16.336C64.3295 17.2295 38.5273 17.7439 23.4738 18.2583C19.3313 18.4208 12.8334 18.5291 9.07002 18.5291H2.22012L2.16597 15.3343C2.05768 10.6503 2.19305 7.40138 2.51795 6.39963C3.03236 4.80222 3.08651 4.80222 13.5915 4.6127C18.8711 4.53148 26.3166 4.36902 30.107 4.31488C33.8975 4.23366 45.0523 4.04413 54.8804 3.90875C78.3 3.55678 88.3447 3.39435 93.4618 3.2319C95.7632 3.15068 103.263 3.04237 110.113 2.96115C116.963 2.87993 123.298 2.74455 124.192 2.69041C125.085 2.63626 130.338 2.50089 135.834 2.39258C141.357 2.31136 145.905 2.17599 145.96 2.12184C146.122 1.9594 147.395 1.98647 148.071 2.17599ZM147.313 17.8793C149.561 18.5291 149.913 19.0435 150.292 22.1842C150.833 26.4078 151.916 34.0429 152.485 37.4814C152.755 39.1871 153.216 42.1111 153.459 43.9793C153.703 45.8474 154.001 47.6073 154.109 47.9051C154.244 48.2571 153.838 49.2859 152.728 51.4248C150.833 55.0258 150.265 57.2188 150.237 61.0363C150.21 64.2312 150.616 65.9639 152.079 68.8609C153.838 72.3806 154.272 75.4942 153.432 78.6349C152.945 80.3947 152.918 81.9921 153.324 82.7502C153.486 83.0481 154.272 83.5896 155.057 83.9415C155.869 84.2935 156.654 84.835 156.817 85.1599C157.006 85.4848 157.304 86.7844 157.521 88.0569C157.818 89.9792 158.089 90.6561 158.901 91.8744C159.849 93.2281 159.984 93.6613 160.553 97.2894C160.878 99.4553 161.23 101.675 161.311 102.19C161.473 103.083 161.338 103.273 159.28 105.439C154.921 109.987 150.508 117.622 148.017 124.933C145.797 131.403 143.36 135.871 140.355 139.066C138.298 141.232 136.808 141.854 133.532 141.854C131.096 141.854 130.852 141.8 128.903 140.825C127.793 140.257 126.249 139.418 125.518 138.93C121.592 136.331 118.831 135.167 115.474 134.679L113.28 134.355L112.82 132.703C111.71 128.696 108.949 124.093 106.079 121.494C104.292 119.897 101.557 118.435 99.0663 117.785C98.1728 117.568 97.4147 117.325 97.3335 117.243C97.1981 117.108 96.6025 113.29 95.8985 108.011C95.7632 106.82 95.3029 103.11 94.9509 99.7531C94.5719 96.3959 93.9492 91.2788 93.5972 88.3818C93.2181 85.4848 92.6767 81.207 92.3788 78.9056C90.1858 61.6049 89.5631 55.8922 89.1299 48.4466C88.805 42.788 89.2111 43.0858 81.8468 43.3024C68.6614 43.6815 46.8663 44.25 34.3036 44.5479C17.8693 44.9269 19.3855 44.4396 19.6562 49.1776C19.8457 52.1829 20.4143 57.7062 21.2807 65.0975C21.768 69.1046 22.9593 80.3947 23.203 83.1022C23.2842 84.131 23.4738 86.0804 23.6091 87.4342C23.7445 88.7608 24.0423 91.8744 24.286 94.3382C24.5026 96.802 24.8816 100.62 25.0982 102.867C25.3148 105.087 25.8022 110.15 26.1812 114.103C26.5603 118.056 27.0205 123.173 27.2642 125.474C27.4808 127.775 27.8328 131.972 28.0764 134.815C28.3743 138.659 28.5909 140.04 28.8887 140.365C29.4031 140.853 32.9499 140.825 40.6662 140.23C43.4278 140.013 48.0034 139.715 50.8192 139.553C53.662 139.39 56.7215 139.228 57.6691 139.174C59.2394 139.093 59.3477 139.12 59.3477 139.661C59.3477 139.959 59.5372 141.99 59.7538 144.156C59.9704 146.322 60.16 148.271 60.16 148.515C60.16 148.867 59.5643 149.002 56.9922 149.273C46.9475 150.302 43.5361 150.681 41.4784 150.924C40.2059 151.06 37.8504 151.303 36.1989 151.466C32.246 151.872 32.0835 151.926 31.5962 152.63C31.2442 153.199 31.2442 153.794 31.7315 158.397C32.3272 164.028 33.2748 171.853 33.4914 172.746C33.5726 173.071 33.9246 175.806 34.3036 178.838C35.1971 186.257 36.5238 196.708 36.984 200.146C37.5255 204.126 37.8504 204.37 41.2618 203.612C42.2094 203.395 45.8916 202.881 49.4655 202.502C53.0393 202.123 57.1276 201.635 58.5355 201.419C59.9434 201.202 62.0823 200.904 63.2735 200.769C64.4648 200.633 67.3889 200.254 69.7715 199.957C72.154 199.659 76.9192 199.09 80.3306 198.738C95.2758 197.114 103.29 196.031 103.831 195.598C104.346 195.164 104.346 195.137 103.669 191.509C103.29 189.506 102.667 186.121 102.288 183.955C101.909 181.789 101.097 177.403 100.501 174.209C99.1475 167.088 98.6872 164.516 98.4706 162.512L98.2811 160.942L100.122 160.888C101.151 160.861 102.965 160.861 104.129 160.861L106.295 160.915L106.81 162.187C107.487 163.92 109.517 166.98 111.169 168.739C113.551 171.284 118.425 174.1 122.134 175.048C127.793 176.537 135.969 175.752 142.575 173.098C150.427 169.958 155.409 166.032 161.203 158.424C162.096 157.26 162.854 156.339 162.908 156.393C163.233 156.745 164.208 162.648 164.397 165.518C164.506 167.44 164.749 169.254 164.912 169.525C165.183 170.039 165.074 170.066 162.421 170.229C158.035 170.472 153.513 171.636 151.456 172.99C149.398 174.371 148.423 176.997 149.669 177.918C150.265 178.351 150.562 178.324 154.244 177.349C155.761 176.97 158.36 176.537 160.174 176.402C163.612 176.131 164.289 175.86 163.504 175.075C163.098 174.696 162.529 174.615 159.849 174.615C156.6 174.642 155.084 174.94 151.997 176.158C151.212 176.456 150.508 176.672 150.454 176.591C150.102 176.239 151.239 175.021 152.728 174.154C155.327 172.665 158.522 171.961 162.99 171.961C165.968 171.961 166.699 171.88 167.159 171.501L167.728 171.041L167.024 169.47C166.212 167.738 166.076 166.357 166.699 166.357C167.322 166.357 169.731 167.873 170.625 168.848C171.058 169.335 171.816 170.31 172.276 171.014L173.088 172.286L172.412 173.478C171.085 175.725 170.598 177.647 170.543 180.706C170.516 183.17 170.652 184.118 171.329 186.446C171.518 187.096 170.868 187.069 166.726 186.365C164.1 185.932 163.314 185.688 162.773 185.174C161.501 183.955 160.363 183.685 156.627 183.685C154.732 183.685 152.701 183.603 152.133 183.522C151.158 183.36 151.131 183.306 151.564 182.845C152.241 182.087 154.163 181.573 158.387 181.004C163.017 180.409 164.208 179.786 161.988 179.136C160.688 178.73 157.521 178.73 155.355 179.109C150.481 179.948 147.774 183.631 150.941 185.038C151.889 185.472 152.837 185.553 155.95 185.607C158.062 185.607 159.849 185.715 159.903 185.796C159.957 185.905 159.822 187.123 159.632 188.504C159.335 190.562 159.064 191.32 158.333 192.43C155.842 196.247 152.945 201.716 149.182 209.812C144.85 219.125 142.277 226.111 140.951 232.284C140.436 234.666 139.949 236.643 139.895 236.697C139.841 236.751 134.047 236.751 126.98 236.724C111.873 236.616 86.639 236.67 44.7274 236.913C18.5462 237.049 14.2142 237.022 13.9164 236.697C13.5644 236.264 12.4544 228.602 11.8587 222.401C11.0194 213.819 10.884 212.14 10.6133 207.24C10.4508 204.478 10.2072 200.471 10.0718 198.305C9.90934 196.139 9.61151 190.291 9.39492 185.309C8.79927 171.772 8.4473 164.787 8.17655 160.265C8.04118 158.018 7.79751 152.359 7.63506 147.675C7.49969 142.991 7.22894 137.143 7.09357 134.679C6.93112 132.216 6.6333 125.095 6.4167 118.841C6.17303 112.587 5.87521 105.466 5.73983 103.002C5.46909 98.4806 4.92759 86.5678 4.3861 74.0322C4.22365 70.2417 3.92583 63.5272 3.70923 59.1411C3.08651 46.5785 2.62624 33.2306 2.62624 27.3825V21.9946L3.41141 21.3719C3.84461 21.02 4.57562 20.668 5.03589 20.5597C5.49616 20.4785 9.66566 20.3972 14.2684 20.4243C18.8981 20.4514 29.0511 20.316 36.8757 20.1536C44.7003 19.9911 60.4036 19.6933 71.8021 19.4496C83.2005 19.233 95.7361 18.9352 99.689 18.7998C110.492 18.4208 134.751 17.7168 144.119 17.5002C145.093 17.4732 146.528 17.6356 147.313 17.8793ZM86.5307 46.064C86.6119 46.3348 86.8556 49.4754 87.0993 53.0493C87.6949 62.4713 88.3988 68.6443 90.619 84.4559C91.4583 90.5748 92.8662 101.242 93.7326 108.282C93.8679 109.473 94.1928 111.828 94.4365 113.507C94.6531 115.213 94.8156 116.648 94.7614 116.702C94.5448 116.891 82.2258 117.541 82.0363 117.379C81.928 117.27 81.6572 115.754 81.4136 113.967C80.8992 109.987 80.493 107.848 78.9498 101.242C78.3 98.4265 77.7585 95.5295 77.7585 94.8255C77.7585 93.3094 76.865 85.7285 76.2423 81.7485C75.7279 78.662 75.2947 77.6331 74.4283 77.4165C74.1034 77.3353 71.775 77.3895 69.23 77.5248C66.712 77.6873 64.0587 77.8226 63.3548 77.8226C62.4072 77.8226 62.001 77.958 61.8386 78.2829C61.7032 78.5807 61.7303 80.5843 61.9469 83.1022C62.1093 85.4848 62.4072 89.4918 62.5967 92.0368C62.7862 94.5548 63.0299 96.8562 63.1652 97.1269C63.4089 97.5601 63.8692 97.5872 69.5007 97.4247L75.5654 97.2352L75.8362 97.9391C76.2694 99.0492 78.2458 108.552 78.7061 111.666C78.9498 113.236 79.3018 115.186 79.5183 115.998C79.7349 116.81 79.8162 117.568 79.7079 117.65C79.5996 117.758 77.0816 117.974 74.1034 118.137C71.1252 118.326 67.3077 118.597 65.629 118.76C63.9504 118.895 62.5154 118.976 62.4342 118.922C62.2176 118.705 61.7844 115.998 61.1076 110.529C60.7285 107.551 60.16 103.517 59.8621 101.54C59.1311 96.802 56.4507 77.4436 56.1529 74.7091C56.0175 73.5178 55.9634 72.4077 56.0175 72.2453C56.0717 72.0557 57.4525 71.8662 59.5643 71.7579C63.6797 71.5143 65.2229 71.2706 65.7915 70.702C66.1705 70.2959 66.1705 69.7002 65.7373 64.0958C65.4124 59.7638 65.1417 57.7332 64.8709 57.3C64.4648 56.6773 64.4648 56.6773 59.6726 56.8398C57.0464 56.921 54.5013 57.0564 54.0411 57.1376C52.552 57.3542 52.4437 57.7062 52.8227 60.9822C53.1205 63.6626 53.4725 68.0487 53.8516 73.7885C53.9869 75.9816 53.9599 76.144 53.3101 76.9021L52.6332 77.6873L39.6644 77.8497C32.5438 77.958 26.452 77.9851 26.1271 77.9039C25.4502 77.7414 25.3419 77.4707 25.1253 75.5213C25.0441 74.7632 24.5297 70.4583 24.0152 65.9098C22.9052 56.217 22.2283 48.4466 22.4178 47.9322C22.6344 47.3907 24.0694 47.2283 28.3472 47.2283C30.4319 47.2283 35.7386 47.1199 40.1247 46.9575C47.4078 46.7138 56.6402 46.416 71.9374 45.9828C75.0781 45.8745 77.6502 45.7662 77.7043 45.7392C77.7585 45.685 79.7349 45.6308 82.0904 45.6308C85.9892 45.5767 86.3953 45.6308 86.5307 46.064ZM63.6526 63.7167C63.8692 66.8033 63.9233 69.0234 63.788 69.1588C63.6526 69.2941 61.7574 69.4836 59.5914 69.5919L55.6114 69.7815L55.449 68.9963C55.3677 68.5631 55.1782 66.6949 55.0158 64.8268C54.8533 62.9586 54.6638 60.8739 54.6096 60.1429L54.4472 58.8704L56.9651 58.8433C58.3459 58.8162 60.2141 58.735 61.1076 58.5996C62.001 58.4913 62.8674 58.4372 63.0028 58.4642C63.1652 58.4913 63.436 60.7656 63.6526 63.7167ZM158.062 65.3683C161.528 67.0199 167.403 68.1841 174.009 68.509C179.343 68.7526 181.996 68.3736 184.731 66.9386C186.518 66.0181 187.032 65.8556 187.98 65.991C189.252 66.1535 189.983 66.722 190.687 68.1299C192.041 70.7561 191.553 72.7597 189.144 74.5737C187.79 75.5755 187.709 75.7379 187.871 76.5501C188.277 78.7161 190.389 83.8874 192.014 86.6219C193.692 89.4648 193.774 89.6814 193.774 91.3871C193.774 92.822 193.638 93.3364 193.097 94.1758C192.176 95.5295 189.658 97.4247 187.817 98.1016C184.46 99.347 179.18 99.5636 177.366 98.5077C176.419 97.9391 176.229 97.6684 175.119 95.0963C174.144 92.795 173.738 92.6596 167.944 92.6054C163.666 92.5784 163.071 92.5242 162.232 92.0368C160.959 91.2788 160.418 90.2229 160.12 87.9486C159.714 85.0516 159.037 83.752 157.466 82.8315C154.921 81.3694 154.813 81.0987 155.734 78.1475C156.654 75.2235 156.492 73.6802 154.786 69.1588C154.515 68.4548 154.272 66.7491 154.163 65.1246L154.028 62.2818L155.219 63.446C155.869 64.0687 157.169 64.9351 158.062 65.3683ZM53.9057 79.5554C54.6367 80.4489 56.8298 94.988 59.2123 114.78C59.7809 119.409 59.808 119.166 58.5084 119.518L57.3713 119.843L57.5608 122.577C57.6691 124.093 58.0481 127.884 58.4001 131.024C58.7521 134.138 59.0228 136.737 58.9687 136.764C58.725 137.008 36.4696 138.199 32.3813 138.199C31.7586 138.199 31.3796 138.037 31.19 137.658C31.0276 137.387 30.7839 135.519 30.6215 133.542C30.4861 131.566 29.6197 123.119 28.7533 114.78C27.8599 106.441 26.8852 96.9374 26.5873 93.6613C26.2895 90.3853 25.8834 86.2429 25.6668 84.483C25.4502 82.6961 25.3419 81.0987 25.4231 80.8821C25.5314 80.6384 26.2083 80.5301 28.0494 80.5301C29.4031 80.5301 31.7857 80.4218 33.356 80.2594C34.9263 80.124 39.8539 79.8803 44.2942 79.7179C48.7344 79.5825 52.4437 79.393 52.5249 79.3118C52.7956 79.041 53.6079 79.1764 53.9057 79.5554ZM73.8056 79.6367C73.968 80.3135 74.4283 83.3188 74.9157 87.2988C75.1593 89.1669 75.4842 91.5224 75.6196 92.5242C75.8362 93.8509 75.8362 94.4736 75.6196 94.6902C75.3218 94.988 66.0622 95.5566 65.4395 95.3129C65.2229 95.2317 64.9792 94.0675 64.7897 92.1181C64.6002 90.4395 64.1941 87.3529 63.8963 85.2682C63.5714 83.1834 63.3277 81.0445 63.3006 80.5301L63.2735 79.5825L66.5225 79.4471C73.3183 79.1222 73.6431 79.1222 73.8056 79.6367ZM198.43 90.8185C199.08 90.9809 201.517 91.1975 203.845 91.36C209.45 91.6849 213.213 92.7137 218.466 95.3941C224.612 98.5077 228.564 102.542 234.738 112.072C238.907 118.462 243.347 130.781 244.024 137.793C244.728 145.32 243.077 154.688 239.394 163.92C237.445 168.821 234.656 173.478 230.866 178.188C228.185 181.519 224.909 183.955 219.44 186.636C211.941 190.318 204.224 192.403 196.183 192.917C186.599 193.513 179.37 191.915 175.471 188.342C173.792 186.798 173.251 185.742 172.791 183.089C172.168 179.623 173.332 175.237 175.471 172.801C176.473 171.663 179.451 170.147 182.673 169.146C184.541 168.577 185.651 168.442 190.525 168.252C197.32 167.954 199.351 167.656 203.114 166.384C205.659 165.49 208.854 163.704 210.695 162.106C213.267 159.832 215.163 156.393 216.543 151.412C217.41 148.325 217.708 142.071 217.22 137.468C216.706 132.432 214.919 124.662 214.296 124.662C213.782 124.662 213.863 125.718 214.621 129.4C217.545 143.289 213.186 158.505 205.091 162.783C201.652 164.597 198.241 165.463 191.689 166.221C183.702 167.115 179.37 168.198 175.877 170.174C175.119 170.608 174.415 170.96 174.334 170.96C174.226 170.96 173.684 170.283 173.061 169.47C172.466 168.658 171.004 167.277 169.812 166.357C167.538 164.624 167.105 164.028 165.887 160.752C164.668 157.585 163.91 154.173 163.314 149.137C162.8 144.914 162.719 143.398 162.854 137.252C162.935 132.486 163.125 129.183 163.45 127.017C163.721 125.285 163.856 123.768 163.748 123.66C163.342 123.254 163.017 124.174 162.502 126.99C162.232 128.615 161.717 131.349 161.392 133.055C160.905 135.627 160.797 137.116 160.769 141.584C160.769 146.457 160.851 147.323 161.501 150.356L162.232 153.713L161.392 155.229C158.008 161.213 151.943 166.871 145.418 170.174C142.873 171.447 137.918 172.963 135.049 173.369C132.476 173.721 128.524 173.748 126.358 173.396C122.838 172.828 121.917 172.53 119.02 171.122C113.849 168.55 111.629 166.086 107.757 158.505C105.456 154.011 104.779 151.737 104.752 148.271C104.698 142.883 107.297 139.011 111.927 137.631C113.443 137.17 114.201 137.089 115.69 137.225C119.156 137.549 123.758 139.688 126.899 142.423C128.659 143.966 129.661 144.426 131.312 144.426C133.695 144.426 136.863 143.885 138.352 143.208C140.057 142.423 142.142 140.392 143.74 137.901C144.795 136.304 148.423 128.425 149.913 124.526C150.887 122.036 153.595 116.404 155.138 113.751C158.089 108.688 160.932 105.71 165.291 103.165C167.484 101.892 170.868 100.295 171.437 100.295C171.599 100.295 172.33 100.051 173.061 99.7261C174.388 99.1575 174.388 99.1575 175.146 99.699C176.473 100.62 178.964 101.378 181.265 101.54C185.407 101.838 190.064 99.9968 193.34 96.7478C194.884 95.2046 196.616 92.4159 196.616 91.4412C196.616 90.4936 196.779 90.4395 198.43 90.8185ZM163.991 94.3653C164.749 94.5277 166.753 94.5548 168.621 94.4465L171.87 94.2841L172.601 95.1505C173.116 95.7461 173.332 96.3147 173.332 97.0457V98.0745L170.3 99.0763C167.267 100.078 165.156 100.999 163.802 101.946C163.396 102.244 163.017 102.379 162.963 102.271C162.8 102.027 162.123 98.5619 161.717 95.9898C161.419 94.0945 161.501 93.6613 162.204 93.9321C162.448 94.0404 163.26 94.2299 163.991 94.3653ZM97.0898 118.868C100.582 119.761 103.29 121.629 106.079 125.014C107.053 126.205 108.245 127.992 108.759 128.967C109.544 130.591 111.223 135.465 111.006 135.627C110.952 135.654 110.167 136.087 109.246 136.575C107.27 137.604 105.239 139.634 104.021 141.8L103.155 143.343L102.18 142.558C100.962 141.611 97.3606 139.797 95.4653 139.174C94.4907 138.849 92.4601 138.659 88.7508 138.497C85.8268 138.362 83.363 138.199 83.2817 138.118C82.9027 137.766 83.8503 136.818 85.2582 136.114C86.7744 135.383 86.9639 135.356 91.0792 135.356C94.0575 135.356 95.4383 135.248 95.6549 135.031C95.9256 134.761 95.8444 134.652 95.33 134.463C94.2741 134.057 88.074 133.542 86.6661 133.732C83.6879 134.138 81.2782 137.414 82.8756 138.849C83.7149 139.607 85.7455 140.067 89.5631 140.365C95.1404 140.798 98.8768 142.206 101.178 144.751L102.369 146.078L102.342 149.11C102.288 151.52 102.424 152.576 102.884 154.282C103.236 155.446 103.669 156.664 103.886 156.962C104.806 158.262 104.562 158.397 100.447 158.749C98.3082 158.938 94.5719 159.317 92.1081 159.588C89.6443 159.886 86.8014 160.13 85.7997 160.184L83.9586 160.265L83.0381 156.718C82.5507 154.769 81.8197 152.089 81.4407 150.762C81.0345 149.435 80.493 146.592 80.1952 144.426C79.6266 140.392 77.5419 127.044 76.7838 122.55C76.5401 121.169 76.4048 119.978 76.4589 119.924C76.5943 119.788 89.6984 118.705 91.1605 118.705H92.3518L91.9456 119.68C91.3229 121.142 91.6207 121.846 93.1098 122.496C94.7343 123.2 95.357 123.768 95.357 124.526C95.357 125.095 95.1946 125.122 92.6225 125.312C87.2888 125.664 84.2835 126.828 83.1464 129.021C82.4424 130.429 82.4966 131.024 83.39 131.701C84.0398 132.243 84.3376 132.27 86.1516 132.134C87.2617 132.026 89.9421 131.891 92.1081 131.81C95.7902 131.647 96.7108 131.458 96.7108 130.835C96.7108 130.7 96.2505 130.402 95.709 130.158C94.8697 129.806 94.0304 129.779 91.0251 129.914C89.0216 129.996 86.5848 130.158 85.6372 130.239C83.9586 130.402 83.9315 130.402 84.2293 129.833C85.556 127.369 92.8932 125.826 98.1728 126.936C101.07 127.532 102.18 127.505 102.83 126.801C103.344 126.232 103.344 126.205 101.855 124.878C100.122 123.335 97.7667 122.117 95.2217 121.494C93.5701 121.088 93.4618 121.007 93.4618 120.303C93.4618 119.436 94.3011 118.435 94.978 118.435C95.2217 118.435 96.1693 118.624 97.0898 118.868ZM73.968 120.465C74.1305 120.682 74.4012 121.305 74.5366 121.873C75.7008 126.828 78.2729 146.538 77.7856 146.836C77.1358 147.242 62.5967 148.542 62.2447 148.244C62.0281 148.027 61.3512 142.802 60.5931 135.627C59.2665 123.2 59.077 121.305 59.2123 121.196C59.3748 121.034 69.8527 120.167 72.2353 120.086C73.1829 120.059 73.7514 120.195 73.968 120.465ZM98.606 124.797C99.3912 125.203 99.7702 125.853 99.0934 125.609C97.5501 125.068 97.2523 124.906 97.3876 124.662C97.6042 124.31 97.6855 124.31 98.606 124.797ZM80.0869 154.769C80.7909 157.855 81.3053 160.455 81.2241 160.536C80.9262 160.834 65.5207 162.891 65.3041 162.675C64.7356 162.079 63.6797 150.843 64.1941 150.545C64.3024 150.464 66.9286 150.166 70.0422 149.841C73.1829 149.516 76.3506 149.164 77.0816 149.056C77.8397 148.948 78.5166 148.921 78.6249 149.002C78.7061 149.083 79.383 151.682 80.0869 154.769ZM62.0823 156.881C62.2447 163.162 62.5154 164.787 63.4089 165.274C63.7338 165.436 65.5749 165.274 69.257 164.732C72.2353 164.299 76.3506 163.758 78.4354 163.514C85.0687 162.756 90.5378 162.025 93.2723 161.592C94.7343 161.348 95.9798 161.213 96.0068 161.24C96.061 161.294 96.6025 164.462 97.2252 168.252C97.8479 172.043 99.0663 178.865 99.9327 183.414C102.072 194.542 101.99 193.946 101.259 194.217C100.907 194.352 99.5536 194.515 98.1999 194.623C95.357 194.839 91.8915 195.246 81.2782 196.572C69.8256 197.98 65.4395 198.522 59.8892 199.117C57.1276 199.442 52.4978 199.984 49.6008 200.39C42.6697 201.31 40.1518 201.5 39.8539 201.148C39.4478 200.66 39.0688 198.792 38.3648 193.838C37.9858 191.157 37.6338 188.775 37.5526 188.558C37.3631 187.881 35.2512 173.911 34.1683 166.086C33.1936 158.993 32.7874 154.363 33.1123 154.038C33.2477 153.93 40.8286 152.684 45.5396 152.007C52.2271 151.06 55.9634 150.735 59.4831 150.762L61.9198 150.789L62.0823 156.881Z" fill="black"/>
<path d="M140.03 6.07477C138.92 6.34552 137.702 7.67217 137.539 8.78224C137.214 10.8941 138.947 12.5727 141.384 12.5727C143.577 12.5727 144.985 11.3002 144.985 9.32373C144.985 8.43027 144.795 8.02415 144.091 7.29313C143.604 6.80578 142.9 6.31844 142.494 6.21014C142.115 6.12892 141.6 6.02062 141.384 5.96647C141.167 5.91232 140.544 5.96647 140.03 6.07477Z" fill="black"/>
<path d="M117.179 6.34542C114.743 7.07643 113.741 10.2442 115.392 12.1123C116.557 13.439 118.235 13.8722 119.86 13.2495C123.027 12.0582 123.461 8.43017 120.645 6.85983C119.616 6.26419 118.154 6.07467 117.179 6.34542Z" fill="black"/>
<path d="M128.117 6.53497C125.897 8.07822 125.788 11.0023 127.9 12.3019C129.146 13.06 131.42 13.0329 132.503 12.2748C134.696 10.7045 134.29 7.69918 131.718 6.37252C130.824 5.91225 128.875 6.02055 128.117 6.53497Z" fill="black"/>
<path d="M131.555 34.7739C122.513 34.9093 122.106 34.9363 121.727 35.4508C121.484 35.7486 121.375 36.2901 121.457 36.6691C121.511 37.0482 121.836 39.9722 122.161 43.167C122.458 46.3618 123.081 52.562 123.514 56.9481C124.354 65.2329 124.327 65.5849 123.216 66.2076C122.567 66.5325 113.28 67.6155 106.999 68.0757C101.53 68.4548 101.638 68.3736 102.071 72.1911C102.261 73.7344 102.64 76.144 102.938 77.5519C103.235 78.9598 103.912 83.4812 104.454 87.5695C104.995 91.6578 105.591 96.2876 105.807 97.8579C106.024 99.4282 106.322 101.784 106.457 103.137C106.809 106.251 107.053 106.793 108.001 106.793C108.921 106.793 115.879 105.574 123.893 104.031L129.796 102.894L130.283 103.462C130.689 103.977 130.77 105.006 130.96 111.449C131.068 115.754 131.258 118.976 131.42 119.166C131.853 119.707 133.884 119.572 136.456 118.868C137.756 118.516 140.517 117.839 142.602 117.379C151.618 115.348 150.914 115.592 151.401 114.373C151.807 113.399 151.374 108.85 150.156 101.567C149.181 95.5836 147.773 84.2935 146.663 73.4907C146.447 71.3247 146.013 62.2547 145.716 53.32C145.418 44.3854 145.12 36.6962 145.039 36.2088C144.822 34.9905 144.01 34.5031 142.331 34.5573C141.6 34.5844 136.727 34.6927 131.555 34.7739ZM143.143 36.994C143.252 37.5897 143.495 40.8657 144.118 50.0711C144.254 52.4537 144.362 56.9481 144.308 60.0887L144.226 65.7744L143.414 65.9368C142.981 66.0451 139.109 66.1264 134.832 66.1534L127.061 66.1805L126.926 65.2871C125.924 59.2494 123.731 37.4543 124.083 37.1023C124.218 36.9669 135.211 36.5067 139.813 36.4525C142.9 36.3984 143.008 36.4254 143.143 36.994ZM144.199 67.9945C144.254 68.2653 144.389 69.7002 144.497 71.1893C144.714 74.682 145.309 80.6113 145.986 86.0804C147.015 94.4736 147.015 94.4465 146.69 94.7985C146.419 95.0963 142.9 95.8273 136.158 96.9374C134.046 97.2893 133.126 97.3706 132.801 97.154C132.476 96.9644 132.178 96.0168 131.853 94.1757C131.583 92.7137 131.204 90.5207 130.987 89.3294C130.527 86.8656 128.577 76.1169 127.819 71.8662C127.548 70.2959 127.305 68.888 127.305 68.7255C127.305 68.5089 128.929 68.3465 132.53 68.2111C135.373 68.1028 138.839 67.9133 140.165 67.805C144.064 67.4801 144.037 67.4801 144.199 67.9945ZM124.814 68.888C125.139 69.2129 125.41 69.4836 125.41 69.5107C125.41 69.5649 126.438 75.5213 127.44 81.207C128.415 86.7573 130.175 96.2876 130.608 98.2099C130.906 99.5636 130.879 99.8885 130.527 100.511C130.148 101.215 129.877 101.296 124.462 102.244C121.321 102.785 117.26 103.435 115.392 103.652C113.524 103.896 111.547 104.166 111.006 104.248C110.031 104.383 110.004 104.356 109.706 103.354C109.544 102.785 109.056 99.699 108.623 96.5042C107.838 90.6831 107.08 85.5931 105.807 77.4165C105.428 75.0339 105.104 72.4618 105.049 71.7308L104.968 70.3771L108.217 70.0793C110.004 69.9168 113.713 69.5107 116.475 69.1858C119.236 68.888 122.025 68.5902 122.702 68.536C123.379 68.4819 124.002 68.4277 124.083 68.4006C124.164 68.3736 124.489 68.5902 124.814 68.888ZM146.907 97.7767C147.367 99.9968 148.613 109.69 148.748 111.937C148.829 113.318 148.775 113.453 148.098 113.751C147.719 113.967 146.853 114.211 146.203 114.346C145.553 114.482 143.116 115.023 140.788 115.565C138.432 116.133 136.185 116.539 135.779 116.485C134.886 116.377 134.886 116.431 134.073 109.906C133.776 107.361 133.261 104.112 132.963 102.623C132.449 100.105 132.449 99.9427 132.882 99.6178C133.153 99.4282 134.886 99.0221 136.754 98.6972C138.622 98.3723 141.14 97.9391 142.331 97.7225C146.934 96.9103 146.717 96.9103 146.907 97.7767Z" fill="black"/>
<path d="M38.1954 93.6266C38.0727 93.8872 38.0645 94.2465 38.1054 97.1844C38.1463 100.015 38.1709 100.491 38.2936 100.688L38.4245 100.913L37.3364 100.85C34.7594 100.724 33.3769 100.697 33.2623 100.787C33.0906 100.913 33.0169 101.82 33.0087 103.851C33.0087 104.812 32.9842 106.367 32.9515 107.292L32.9024 108.99L32.2806 108.954C31.6671 108.927 31.6671 108.927 31.5444 109.197C31.4544 109.403 31.4217 109.844 31.4217 110.994C31.4135 112.763 31.4626 112.952 32.0025 113.042C32.5506 113.15 37.5409 113.114 37.8191 113.006C38.1463 112.88 38.1709 112.737 38.1545 110.94C38.1218 107.211 38.1954 105.711 38.4081 105.666C38.5144 105.648 38.5308 105.899 38.539 107.508C38.539 109.071 38.5635 109.43 38.6781 109.727C38.8008 110.041 38.8171 110.392 38.809 112.395L38.8008 114.713L37.0337 114.668C35.872 114.632 35.2176 114.65 35.1358 114.713C35.0294 114.794 35.0049 115.18 34.9885 117.031C34.9558 119.412 35.0049 119.843 35.3239 120.041C35.4466 120.122 36.0684 120.167 37.3282 120.185L39.1526 120.221L39.1116 120.948C39.0053 122.718 38.9889 124.174 39.0626 124.964C39.1607 126.114 39.2262 126.177 40.4206 126.258C42.8503 126.429 44.0611 126.501 45.4191 126.555L46.908 126.608L46.998 126.348C47.0961 126.06 47.2352 123.805 47.2434 122.395C47.2434 121.748 47.2761 121.469 47.3498 121.433C47.3988 121.415 47.9306 121.424 48.5114 121.469C50.9493 121.64 52.3891 121.541 52.5609 121.191C52.61 121.092 52.6428 119.933 52.6428 118.334C52.6428 115.89 52.6264 115.638 52.5037 115.513C52.381 115.396 51.9392 115.36 50.0167 115.297C48.2006 115.234 47.6443 115.189 47.5379 115.09C47.407 114.974 47.3988 114.767 47.4479 112.71C47.4806 111.209 47.5379 110.302 47.6197 109.987C47.7015 109.664 47.7342 108.999 47.7342 107.741C47.7342 106.762 47.767 105.908 47.7997 105.845C47.8815 105.711 48.3478 105.792 48.3805 105.944C48.4623 106.34 48.4705 109.277 48.3887 110.095C48.3151 110.85 48.3233 111.353 48.3969 112.242C48.5278 113.77 48.5605 113.806 49.6158 113.931C50.4748 114.03 53.3463 113.967 54.2217 113.824C54.5243 113.77 54.9252 113.653 55.1134 113.545L55.4488 113.356L55.3997 111.461C55.367 110.419 55.3097 109.529 55.277 109.493C55.2361 109.448 54.8025 109.394 54.3035 109.358L53.3954 109.304L53.3545 108.846C53.3218 108.595 53.2809 106.807 53.2481 104.884C53.2154 102.952 53.1663 101.317 53.1254 101.236C53.0191 101.012 52.7164 100.985 50.0412 100.967L47.5543 100.949L47.6034 100.67C47.6361 100.518 47.6361 98.8825 47.6034 97.0317C47.5461 93.9321 47.5297 93.6536 47.3907 93.5008C47.2516 93.3481 47.0062 93.3391 42.7848 93.3391H38.3345L38.1954 93.6266ZM41.4759 97.3821V98.1458H40.576H39.6761L39.6516 97.3641C39.627 96.4567 39.5534 96.5106 40.6905 96.5735L41.4759 96.6184V97.3821ZM45.8936 96.7801C45.9263 96.8969 45.9345 97.2294 45.9181 97.5169L45.8936 98.0559L45.0182 98.0829L44.1347 98.1098V97.4001C44.1347 97.0137 44.1592 96.6633 44.1919 96.6364C44.2165 96.6005 44.601 96.5735 45.0428 96.5735C45.8118 96.5735 45.8527 96.5825 45.8936 96.7801ZM47.1943 102.701C47.2679 105.163 47.2843 109.367 47.2189 109.484C47.1698 109.574 46.2862 109.601 43.2512 109.601C41.1078 109.601 39.2671 109.574 39.1689 109.547L38.9808 109.493V105.369V101.245L42.6049 101.218C44.5928 101.209 46.4253 101.192 46.6789 101.174L47.137 101.156L47.1943 102.701ZM37.2464 101.389L38.4899 101.452V102.988C38.4899 103.833 38.4654 104.606 38.4408 104.713C38.4081 104.839 38.2936 104.92 38.0645 104.983L37.7373 105.064L37.6964 106.942C37.68 107.975 37.6473 108.855 37.6227 108.9C37.5982 108.936 36.641 108.972 35.4957 108.972H33.4178V105.306C33.4178 103.294 33.4423 101.551 33.475 101.434L33.5241 101.218L34.7594 101.272C35.4385 101.308 36.5592 101.362 37.2464 101.389ZM52.8227 105.396C52.8391 107.975 52.8146 109.403 52.7655 109.439C52.7246 109.475 51.841 109.511 50.8102 109.511H48.9368L48.9859 107.543C49.0514 105.27 49.0514 105.288 48.2824 105.199L47.857 105.154L47.8079 104.659C47.7752 104.39 47.7343 103.572 47.7179 102.845L47.677 101.515L49.7304 101.488C50.8593 101.479 52.0128 101.461 52.291 101.443L52.7982 101.425L52.8227 105.396ZM35.8966 109.511H37.8354V111.137V112.772L36.5919 112.719C35.9048 112.683 34.694 112.638 33.9086 112.611C33.1233 112.584 32.3543 112.539 32.1988 112.512L31.9289 112.467L31.978 111.685C32.117 109.529 32.117 109.52 32.2561 109.475C32.3379 109.448 32.747 109.448 33.1724 109.466C33.5978 109.493 34.8249 109.511 35.8966 109.511ZM54.9007 110.428C54.8925 110.787 54.9252 111.551 54.9661 112.126L55.0397 113.168L54.8025 113.222C54.0253 113.41 49.3295 113.392 49.0514 113.204C48.9941 113.159 48.945 112.611 48.9041 111.604L48.855 110.068L50.0331 110.014C50.6794 109.987 51.8165 109.924 52.5609 109.879C53.3054 109.844 54.1317 109.799 54.4098 109.799L54.9088 109.781L54.9007 110.428ZM43.3984 115.315C43.4802 115.405 43.4393 119.744 43.3575 119.825C43.3084 119.888 42.7521 119.888 41.844 119.834C41.0587 119.78 39.3489 119.717 38.04 119.681C36.7392 119.646 35.6184 119.583 35.5693 119.547C35.4385 119.457 35.4139 115.297 35.5448 115.243C35.6839 115.198 43.3493 115.27 43.3984 115.315Z" fill="black"/>
</svg>
