<svg width="195" height="240" viewBox="0 0 195 240" fill="none" xmlns="http://www.w3.org/2000/svg">
<path d="M79.3928 0.417816C73.6299 0.610825 66.4332 0.886566 63.4001 1.052C60.367 1.21745 53.4184 1.46561 47.9589 1.63106C30.7529 2.09981 19.2823 2.56856 16.4422 2.89944C14.6223 3.09245 11.4238 4.16783 10.2381 4.96747C6.40538 7.58696 3.42743 12.0263 2.15904 17.0172C1.38698 20.0778 1.33184 23.3039 1.77301 37.7249L2.04875 46.4106L1.35941 47.7066L0.670068 49.0301L0.366758 65.1056C0.201316 73.9567 0.0358744 83.7729 0.00830072 86.9715C-0.0192729 92.6792 -0.0192729 92.7895 0.697642 94.2785C1.11125 95.1057 1.49728 96.0983 1.60757 96.4844C1.69029 96.8704 1.88331 113.911 2.04875 134.398C2.40721 185.409 2.84839 220.621 3.1517 224.454C3.59287 229.968 5.19214 233.663 8.33554 236.641C11.3411 239.426 14.0433 240.143 20.9367 239.978C28.354 239.812 51.2401 239.343 61.1942 239.178C66.2126 239.095 76.0564 238.875 83.1152 238.737C90.1741 238.571 100.487 238.406 106.029 238.351C117.362 238.268 117.913 238.185 120.753 236.338C121.663 235.759 122.766 234.821 123.207 234.242L123.979 233.194L127.068 233.388C132.61 233.718 140 234.353 142.95 234.766C146.617 235.263 158.088 236.669 163.492 237.248C165.781 237.524 169.255 237.91 171.213 238.13C176.948 238.764 178.603 238.847 180.616 238.516C185.717 237.744 189.77 233.856 191.011 228.562C191.728 225.584 191.783 222.524 192.72 160.869C193.217 129.242 193.603 107.872 193.823 102.275C193.906 100.069 194.127 87.9641 194.265 75.3905C194.43 62.7894 194.623 49.7746 194.706 46.4658C194.899 38.4143 194.485 36.5668 191.811 32.9823C190.129 30.7764 187.868 29.5907 182.987 28.3499C179.265 27.4124 173.364 27.7157 152.877 29.8665C149.32 30.2249 144.467 30.6661 142.123 30.8591C135.588 31.3003 129.163 31.9896 127.647 32.3757C126.902 32.5963 126.213 32.7065 126.158 32.6514C125.965 32.4584 125.634 27.826 125.33 21.3462C124.862 11.8057 124.448 9.87556 122.132 6.87004C120.422 4.66415 118.492 2.98216 116.286 1.82407C112.867 0.0317841 112.261 -0.0233612 100.459 0.00421143C94.641 0.0317841 85.1557 0.224792 79.3928 0.417816ZM114.687 3.94724C119.512 6.31857 121.829 9.90314 122.518 15.9693C122.932 19.6918 123.345 26.0337 123.4 29.894L123.455 33.2029L121.939 34.2231C117.665 37.0908 116.038 41.1441 115.404 50.4364C114.715 60.3629 113.474 85.5928 112.895 101.861C112.509 112.698 111.847 125.299 111.378 131.668C111.158 134.564 110.827 141.733 110.634 147.606C110.468 153.452 110.22 158.36 110.137 158.525C110.055 158.663 105.477 158.911 99.2458 159.077C86.7274 159.435 86.2311 159.49 84.5215 161.475C83.1152 163.047 82.5638 164.839 82.5638 167.735C82.5914 170.547 83.1152 173.029 84.0252 174.573C85.5417 177.192 86.5895 177.578 92.4076 177.771C94.8616 177.854 99.6319 177.744 102.996 177.551C106.332 177.385 109.172 177.33 109.283 177.468C109.503 177.716 109.007 195.226 108.483 206.09C107.711 221.393 107.766 222.551 109.531 226.053C110.965 228.865 114.715 231.568 118.079 232.202C118.933 232.34 119.954 232.533 120.312 232.615L120.974 232.726L120.312 233.415C118.989 234.821 117.389 235.042 108.759 234.959C99.4664 234.876 73.9884 235.29 54.3008 235.869C23.7492 236.751 17.3521 236.889 15.9183 236.696C13.7675 236.421 10.762 234.849 9.71422 233.415C8.55613 231.816 7.45318 229.582 6.73627 227.321C6.15722 225.501 6.10208 224.729 5.88149 213.534C4.69582 151.108 4.06163 86.7509 4.19949 44.9217C4.28222 17.1826 4.19949 18.6716 6.21237 14.4252C7.92194 10.7855 10.6517 8.02814 14.1812 6.37372C15.6426 5.68437 15.9734 5.62923 22.1775 5.46379C33.5378 5.10533 33.7584 5.1329 33.7584 5.79468C33.7584 6.92519 34.9165 10.8958 35.6334 12.1918C36.0195 12.9087 36.8743 14.0116 37.5636 14.6182C38.6941 15.666 38.8596 15.7487 40.0452 15.6109C40.7621 15.5282 45.56 15.3352 50.7162 15.1697C55.8725 15.0043 63.1244 14.6734 66.8468 14.4528C77.959 13.7635 85.2384 13.4601 89.1814 13.5153C93.3175 13.598 94.0344 13.3774 95.3304 11.8333C96.13 10.8958 96.2403 10.3443 96.4609 6.89761C96.5436 5.60165 96.7366 4.44356 96.9021 4.27812C97.6466 3.53363 99.4664 3.20274 104.071 3.00974C111.24 2.70642 112.371 2.81671 114.687 3.94724ZM186.765 31.9896C189.467 32.8996 190.956 34.7194 191.921 38.2213C192.252 39.4345 192.39 41.6404 192.472 47.5412C192.693 63.6717 191.838 122.652 190.928 151.907C190.79 156.678 190.542 171.623 190.404 185.134C189.908 228.645 189.963 227.487 188.254 230.41C186.82 232.891 182.325 236.283 180.505 236.283C179.844 236.283 179.844 236.255 180.781 235.235C182.022 233.884 182.849 232.119 183.373 229.775C184.007 226.99 184.255 208.93 184.283 164.591C184.311 120.501 184.752 64.3335 185.138 50.85C185.413 41.7507 185.22 33.8095 184.697 32.0172C184.476 31.2727 184.614 31.2727 186.765 31.9896ZM180.092 32.872C181.939 33.8371 181.967 34.1128 181.912 44.0945C181.856 49.0301 181.719 60.5008 181.553 69.6001C181.415 78.6994 181.222 116.144 181.14 152.845C181.029 191.42 180.864 220.759 180.698 222.468C180.202 228.121 178.658 231.044 175.708 231.899C175.101 232.064 173.529 231.981 170.662 231.623C161.755 230.465 156.351 229.886 145.018 228.838C143.198 228.672 139.172 228.231 136.057 227.845C132.941 227.487 127.702 226.853 124.393 226.494C121.084 226.108 117.83 225.667 117.141 225.529C114.632 224.95 112.591 222.882 111.737 220.014C111.323 218.553 111.351 203.829 111.792 192.854C111.93 189.215 112.068 183.259 112.068 179.619C112.068 173.415 112.288 168.066 113.308 148.874C113.75 140.823 114.715 125.823 114.963 123.369C115.128 121.659 115.597 111.898 115.928 102.551C116.562 85.3998 116.783 80.2986 117.307 70.8409C118.547 48.1202 118.878 44.9217 120.312 42.054C122.463 37.6422 125.33 36.1808 132.058 36.0154L134.264 35.9602L135.257 37.8352C135.781 38.8555 136.443 39.9033 136.691 40.179C137.242 40.7305 138.235 40.7305 144.88 40.2617C147.224 40.0963 152.215 39.7654 155.965 39.5448C164.761 39.0209 166.195 38.69 167.628 36.815C168.014 36.3187 168.538 35.2433 168.842 34.4161C169.283 33.065 169.421 32.9271 170.413 32.7065C173.833 31.9621 178.52 32.0448 180.092 32.872ZM96.0749 163.736C97.2605 164.977 97.7844 166.604 97.8396 169.224C97.8947 172.836 96.4333 174.021 91.9664 174.021C89.0436 174.021 87.8303 173.635 87.1962 172.505C86.7825 171.733 86.8377 165.887 87.2789 164.784C87.72 163.709 88.9884 163.13 91.3873 162.937C95.1098 162.606 94.9719 162.578 96.0749 163.736ZM102.941 163.13C103.685 163.764 104.071 165.97 104.071 169.858C104.071 172.45 103.988 172.891 103.437 173.718C102.748 174.766 101.865 175.042 101.341 174.407C100.955 173.939 101.011 163.626 101.397 162.992C101.7 162.523 102.251 162.578 102.941 163.13ZM109.503 163.488C109.889 164.233 110 173.415 109.614 174.325C109.448 174.794 109.393 174.794 108.676 174.242C107.628 173.415 107.297 171.898 107.27 167.762C107.242 164.702 107.325 164.04 107.739 163.378C108.345 162.496 109.007 162.523 109.503 163.488Z" fill="black"/>
<path d="M52.1497 37.587L44.181 37.8904L43.5192 38.6624C43.1607 39.1036 42.8574 39.5724 42.8574 39.7102C42.8574 39.8481 43.3262 40.4823 43.9052 41.1165L44.9806 42.247L46.249 41.7507C46.9383 41.5025 47.7104 41.3371 47.931 41.4198C48.1516 41.5025 50.8538 41.4749 53.942 41.3646C57.0303 41.2268 60.1461 41.2268 60.863 41.3371C62.1038 41.5025 62.2141 41.4749 62.8483 40.7304C63.2343 40.2893 63.5377 39.7102 63.5377 39.4345C63.5377 38.69 62.1314 37.5319 61.056 37.394C60.5321 37.3113 56.5064 37.4216 52.1497 37.587Z" fill="black"/>
<path d="M30.6982 38.4143C30.6431 38.497 27.1137 38.5797 22.8949 38.6349L15.2294 38.7176L14.4022 39.6551C13.5199 40.6202 13.5199 41.3647 14.3471 42.633C14.8158 43.3775 15.4776 43.4327 16.1669 42.7985C16.6357 42.3849 17.6835 42.3297 25.349 42.2194C31.3049 42.1643 34.1725 42.2194 34.5586 42.4125C35.3582 42.8536 36.1854 42.2746 36.5714 40.9786C36.8472 40.0687 36.8196 39.8481 36.3233 39.1863C35.7994 38.497 35.6339 38.4419 33.2902 38.3591C31.9391 38.3316 30.781 38.3316 30.6982 38.4143Z" fill="black"/>
<path d="M16.9937 46.2728C14.2639 47.2103 12.251 49.8849 11.8098 53.1111C11.1205 58.4052 17.297 62.624 22.3154 60.2526C24.1077 59.4254 25.1279 58.3776 25.9827 56.5302C26.8374 54.6828 27.0305 53.1386 26.6169 51.2361C26.0102 48.4235 24.1628 46.6864 21.1297 46.0522C19.1995 45.6386 18.7308 45.6662 16.9937 46.2728ZM21.3779 49.2232C23.8595 50.4916 24.604 54.1037 22.8668 56.3647C21.9569 57.578 21.4054 57.8813 19.6959 58.0743C17.9587 58.2673 15.6977 57.2471 14.8981 55.9236C13.7675 53.9934 14.6223 50.7949 16.58 49.5816C18.3723 48.4787 19.7234 48.3684 21.3779 49.2232Z" fill="black"/>
<path d="M87.8026 50.1882C65.9918 50.7673 67.2051 50.6294 66.5985 52.3941C66.3227 53.1662 66.3779 53.3868 66.9845 54.214C67.7565 55.1791 68.0874 55.2618 69.604 54.8757C70.4588 54.6552 85.0452 54.0761 93.6206 53.9107C97.2328 53.8555 97.7291 53.6349 97.7291 52.2562C97.7291 51.1809 96.8467 50.2709 95.6611 50.1331C95.2199 50.0779 91.6629 50.1055 87.8026 50.1882Z" fill="black"/>
<path d="M51.2681 50.9879C33.9794 51.5393 33.4004 51.5945 33.0419 53.0835C32.8213 53.9934 33.3176 55.0688 34.0897 55.3721C34.4482 55.4824 35.9096 55.4824 37.3434 55.3721C38.7772 55.2618 44.2644 55.0963 49.5309 54.9861C56.5898 54.8482 59.1817 54.6827 59.4023 54.4346C59.5402 54.2691 59.7608 53.7452 59.8435 53.2765C60.0365 52.2838 59.099 51.0706 58.0236 50.9052C57.6376 50.85 54.6045 50.8776 51.2681 50.9879Z" fill="black"/>
<path d="M95.3854 64.6919C85.5417 64.885 69.1905 65.3537 63.4 65.6019C54.218 65.9879 34.1995 66.6497 25.762 66.8703C21.9017 66.953 17.8208 67.146 16.6903 67.2563C14.8704 67.4493 14.5671 67.5872 13.602 68.5247C11.6167 70.4548 11.5892 70.703 11.9476 77.2931C12.5267 87.7987 13.0781 101.778 13.0781 106.687C13.1057 109.334 13.216 112.449 13.3539 113.58C13.5469 115.427 13.6848 115.731 14.5395 116.503C15.0634 116.999 15.9182 117.523 16.4421 117.661C17.3796 117.909 26.0102 117.716 37.4808 117.165C43.9882 116.861 59.8982 116.282 74.2916 115.813C78.7585 115.648 87.2512 115.455 93.152 115.345L103.878 115.152L104.76 114.352C106.525 112.836 106.635 112.091 106.415 104.205C106.222 95.9053 104.981 70.2894 104.733 68.9107C104.237 66.2912 101.893 64.3611 99.3836 64.5541C98.9976 64.5816 97.2053 64.6368 95.3854 64.6919ZM101.396 67.725C102.141 69.1864 102.031 67.6975 103.244 94.8299C103.382 98.2491 103.63 103.488 103.795 106.521C103.961 109.527 104.016 112.063 103.933 112.146C103.851 112.256 99.9075 112.394 95.1649 112.505C83.3633 112.78 67.0949 113.249 52.7842 113.718C21.6535 114.738 17.8208 114.821 17.2418 114.297C16.9384 114.021 16.6351 113.525 16.5524 113.194C16.2215 111.898 15.284 93.7821 14.9807 82.6148L14.6498 71.089L15.2289 70.4824C15.7804 69.9585 16.1664 69.8758 19.5028 69.8206C21.4881 69.7655 27.0028 69.5449 31.6903 69.3243C36.4054 69.1037 42.3613 68.8556 44.9257 68.7728C47.5176 68.6901 54.5213 68.442 60.5048 68.1938C81.5435 67.3666 91.0288 67.0633 95.9921 67.0081L101.01 66.9806L101.396 67.725Z" fill="black"/>
<path d="M86.6999 77.7894C84.6595 77.9273 81.5988 77.9825 79.8892 77.8997C77.0767 77.7894 76.7734 77.817 76.3046 78.3409C75.5602 79.1681 75.7256 80.8501 76.6631 82.2288C77.6558 83.6351 78.0142 83.7454 78.483 82.8354L78.869 82.1185L86.7275 82.0082C91.029 81.9255 94.6411 81.8703 94.7514 81.8703C94.8341 81.8703 95.1926 81.4292 95.5235 80.9053C96.0749 80.0229 96.0749 79.9126 95.6889 79.1406C94.7514 77.3483 94.3102 77.2931 86.6999 77.7894Z" fill="black"/>
<path d="M57.6095 78.6166L49.6132 78.8648L49.0066 79.5541C48.2621 80.3814 48.2621 80.7122 48.8963 82.5597C49.4753 84.1589 50.1371 84.4347 51.0746 83.442C51.6536 82.8078 51.7915 82.8078 52.729 83.1111C53.9974 83.5523 62.5177 83.2214 64.3375 82.67C65.4956 82.3115 65.5508 82.3391 66.0747 83.056C66.378 83.4696 66.764 83.8005 66.957 83.8005C67.4809 83.8005 68.7769 81.2637 68.7769 80.2711C68.7769 79.1957 67.6739 78.2582 66.4607 78.3409C65.9919 78.3409 62.0213 78.4788 57.6095 78.6166Z" fill="black"/>
<path d="M28.7958 79.6645C23.1432 79.7748 22.1781 79.8575 21.5439 80.2987C20.3858 81.0431 20.0825 81.9255 20.4961 83.3042C21.1579 85.5101 22.702 86.4476 23.3362 85.0413C23.6946 84.2417 23.4465 84.2968 27.0035 84.3244C28.52 84.352 31.5531 84.2417 33.759 84.1038C37.0954 83.8832 37.8675 83.9108 38.3638 84.2417C39.3565 84.8759 39.7149 84.7104 40.3491 83.3593C41.1488 81.6773 41.0109 80.795 39.8528 80.0229C39.0807 79.499 38.5844 79.3887 37.0954 79.4439C36.1028 79.4714 32.3528 79.5817 28.7958 79.6645Z" fill="black"/>
<path d="M84.191 94.2785C78.1524 94.4163 77.6009 94.4715 77.0495 94.9678C76.2223 95.7123 76.3877 97.8906 77.3528 98.8281C78.0145 99.4348 78.0145 99.4348 83.3914 99.2142C86.3418 99.0763 90.4227 98.9109 92.408 98.8557C94.4209 98.773 96.1856 98.6627 96.351 98.5524C96.737 98.3042 96.7095 96.4016 96.2959 95.5193C95.7995 94.4163 94.7242 94.0027 92.5734 94.0579C91.5532 94.0855 87.7756 94.1958 84.191 94.2785Z" fill="black"/>
<path d="M59.5396 94.5818C56.3686 94.7196 53.1149 94.8024 52.3153 94.8024C51.0193 94.8024 50.8539 94.8851 50.1921 95.7399C49.2271 97.0083 49.2271 98.6075 50.1646 99.6277C50.8539 100.372 51.4054 100.51 52.1774 100.097C52.4256 99.9586 56.3411 99.7932 60.8631 99.7105C69.0525 99.5726 69.0525 99.5726 69.604 98.9108C69.9073 98.58 70.1279 97.9182 70.1555 97.477C70.1555 96.5946 69.2455 94.9678 68.6113 94.7196C67.7565 94.3888 65.2473 94.3612 59.5396 94.5818Z" fill="black"/>
<path d="M35.8268 95.409C34.3102 95.5193 30.7532 95.6847 27.9407 95.7399C24.6043 95.8226 22.6466 95.9881 22.2881 96.2086C20.2476 97.5046 20.1925 100.29 22.1778 101.31C22.9223 101.696 23.0877 101.696 24.0252 101.31C24.6594 101.034 25.4315 100.924 25.983 101.034C26.4517 101.117 29.1815 101.034 32.0492 100.841C34.8893 100.648 37.8948 100.538 38.7771 100.565C40.211 100.62 40.3764 100.565 41.0382 99.7656C42.5271 98.0009 41.3691 95.023 39.2183 95.1333C38.8599 95.1608 37.3433 95.2711 35.8268 95.409Z" fill="black"/>
<path d="M86.8379 121.825C83.1982 121.962 82.5916 122.073 81.8747 122.569C79.8342 124.03 79.9445 123.424 79.8618 133.268C79.7791 142.091 79.7791 142.119 80.4408 143.36C81.5989 145.621 81.6265 145.621 92.2148 145.455C97.2883 145.4 102.003 145.207 102.665 145.069C103.989 144.766 105.009 144.104 105.836 142.974C106.388 142.257 106.415 141.871 106.36 136.935C106.305 130.648 105.891 124.334 105.478 123.562C105.312 123.258 104.706 122.707 104.154 122.348C103.134 121.742 102.886 121.714 97.0402 121.687C93.7038 121.659 89.1265 121.742 86.8379 121.825ZM102.555 125.271C103.024 125.988 103.355 129.325 103.658 136.742C103.823 140.326 103.768 141.099 103.437 141.374C102.941 141.788 85.0181 142.615 84.053 142.257C82.5916 141.705 82.5364 141.292 82.6192 133.323C82.7019 126.733 82.757 125.961 83.1982 125.519C83.6945 124.996 86.6725 124.858 98.474 124.665C102.059 124.609 102.141 124.609 102.555 125.271Z" fill="black"/>
<path d="M96.7642 128.249C95.9646 128.718 95.5786 129.297 95.3855 130.4C95.2201 131.117 94.8341 131.641 93.7036 132.523L92.2422 133.681L90.9738 132.192C90.2844 131.393 89.4021 130.51 89.016 130.262C88.3818 129.848 88.2715 129.848 87.6374 130.262C87.2789 130.483 86.9756 130.896 86.9756 131.144C86.9756 131.668 89.7881 135.418 90.9186 136.356C91.6355 136.962 91.7734 136.99 92.4352 136.632C92.8488 136.411 93.9793 135.611 94.9444 134.839C96.5436 133.571 96.7918 133.461 98.0326 133.488C99.6043 133.516 100.625 132.799 100.9 131.503C101.397 129.242 98.6944 127.146 96.7642 128.249Z" fill="black"/>
<path d="M47.4077 126.843C42.7202 126.926 35.0271 127.036 30.312 127.064C21.3782 127.091 20.8543 127.174 20.0822 128.36C19.7513 128.856 19.7789 129.076 20.5234 130.207C21.4609 131.696 21.9848 131.834 22.5638 130.703L22.9774 129.904L26.369 129.738C32.9867 129.435 43.961 129.021 53.1981 128.718C58.3544 128.553 64.2 128.332 66.1578 128.194L69.7423 127.973L70.3214 128.69C70.6523 129.076 71.0383 129.297 71.2037 129.187C71.6449 128.939 71.6173 127.284 71.2037 126.871C70.8453 126.512 62.8213 126.485 47.4077 126.843Z" fill="black"/>
<path d="M39.4115 143.69C23.6393 143.939 22.8121 143.966 21.6816 144.518C20.0823 145.262 19.8066 145.869 20.4408 147.165C21.1026 148.516 21.9574 148.654 22.6191 147.523L23.1155 146.668H26.7276C30.0364 146.668 42.3894 146.282 61.8564 145.565C68.6395 145.317 69.7425 145.317 70.2939 145.676C70.873 146.062 70.9557 146.034 71.3693 145.593C71.9484 144.959 71.9208 144.573 71.259 143.911C70.7351 143.387 70.3767 143.36 63.3454 143.415C59.2645 143.442 48.5108 143.553 39.4115 143.69Z" fill="black"/>
<path d="M46.1667 161.834C31.4699 162.165 23.9975 162.22 23.253 161.999C22.6464 161.834 22.343 161.944 21.5986 162.606C20.7713 163.35 20.7162 163.488 20.9919 164.122C21.1849 164.509 21.6537 165.06 22.0673 165.308C22.7015 165.722 22.8945 165.749 23.6666 165.418C24.2456 165.17 26.5618 164.977 30.7254 164.839C41.1207 164.509 65.1925 163.516 67.7017 163.323C69.3561 163.185 70.1282 163.24 70.266 163.461C70.5969 163.985 71.3965 163.792 72.1135 163.047C72.7752 162.358 72.7752 162.33 72.2513 161.944C71.6447 161.503 62.7109 161.475 46.1667 161.834Z" fill="black"/>
<path d="M75.9467 207.358C14.7608 208.985 19.9997 208.709 17.4354 210.529C15.8913 211.604 15.2019 213.038 15.0641 215.409C14.8435 218.801 16.6358 221.2 20.2203 222.358C21.5439 222.799 22.4814 222.827 32.1873 222.523C42.748 222.22 53.3638 221.944 76.2224 221.393C82.9779 221.228 90.6434 221.035 93.2629 220.952C98.0331 220.786 98.0607 220.759 99.3291 219.904C100.046 219.435 100.984 218.443 101.452 217.698C102.169 216.512 102.279 216.099 102.252 214.251C102.252 213.038 102.086 211.852 101.893 211.466C101.039 209.867 99.4945 208.351 98.171 207.716C96.8199 207.082 96.5717 207.055 90.285 207.11C86.728 207.11 80.2757 207.248 75.9467 207.358ZM96.4339 209.784C96.8199 209.922 97.5644 210.501 98.0883 211.053C99.6048 212.597 99.8806 214.748 98.8604 216.678C98.0883 218.084 98.3365 218.057 81.7095 218.498C73.1617 218.718 66.0753 218.801 65.965 218.691C65.8547 218.58 65.4687 217.257 65.0826 215.74C64.6966 214.224 64.2003 212.404 63.9797 211.659L63.5937 210.364H64.4484C66.0201 210.364 77.8768 210.033 84.2188 209.812C93.6214 209.509 95.6894 209.509 96.4339 209.784ZM60.9466 210.584C61.112 210.694 61.3326 211.715 61.4429 212.845C61.5256 213.976 61.8565 215.851 62.1323 216.981L62.6286 219.049L59.7058 219.215C58.1065 219.325 52.4815 219.49 47.2425 219.601L37.6744 219.794L37.509 219.022C37.4263 218.58 37.1505 217.036 36.93 215.602C36.7094 214.169 36.4061 212.597 36.2682 212.101C36.1303 211.632 36.0752 211.163 36.1579 211.08C36.2406 211.025 38.8601 210.943 41.9759 210.915C46.6359 210.86 54.5495 210.639 59.6782 210.419C60.2021 210.391 60.7812 210.474 60.9466 210.584ZM33.1524 214.913C33.5108 216.871 33.8693 218.829 33.952 219.215L34.0899 219.932L30.9465 220.097C29.2369 220.207 27.1965 220.29 26.4244 220.29H24.9906L24.8251 217.588C24.7148 216.126 24.577 214.141 24.4942 213.204C24.3012 211.136 24.0806 211.246 28.906 211.301L32.4906 211.329L33.1524 214.913ZM21.0751 211.797C21.0751 211.852 21.2681 213.479 21.4887 215.465C22.0402 220.29 22.0402 220.29 21.2957 220.29C20.4409 220.29 18.6211 219.215 17.9869 218.332C16.7185 216.623 17.2424 213.424 18.9519 212.321C19.6689 211.852 21.0751 211.522 21.0751 211.797Z" fill="black"/>
<path d="M187.04 64.1405C186.489 64.7747 186.323 81.4016 186.847 82.4218C187.316 83.2766 188.888 84.3519 189.715 84.3519C190.79 84.3519 190.983 82.8354 191.038 73.9291L191.066 65.85L189.908 64.7471C188.667 63.589 187.674 63.3684 187.04 64.1405ZM189.274 74.2876C189.274 77.8446 189.163 80.7949 189.025 80.8777C188.888 80.9604 188.639 80.8501 188.446 80.6571C188.226 80.3538 188.171 78.6993 188.308 74.2324C188.502 67.8905 188.557 67.3942 188.998 67.6699C189.163 67.7802 189.274 70.2618 189.274 74.2876Z" fill="black"/>
<path d="M186.82 88.4053C186.654 88.9843 186.571 91.9347 186.599 94.9954C186.654 100.51 186.654 100.538 187.399 101.641C188.226 102.881 189.081 103.323 189.687 102.826C190.294 102.302 190.625 100.152 190.818 95.1057C190.956 90.9696 190.928 90.1149 190.514 89.1498C190.046 87.9365 189.218 87.3851 187.895 87.3851C187.206 87.3851 187.04 87.5229 186.82 88.4053ZM189.053 94.6094C189.136 98.3042 189.053 98.9109 188.474 98.5524C188.143 98.3594 188.033 91.6314 188.336 90.8318C188.75 89.784 188.998 91.0799 189.053 94.6094Z" fill="black"/>
<path d="M152.517 64.499C149.153 65.3537 146.81 68.442 146.81 72.0266C146.81 73.4052 146.782 73.488 145.624 74.2049C144.99 74.6185 144.108 75.3078 143.666 75.7766L142.839 76.6314H139.668C134.87 76.6589 132.664 76.9898 131.341 77.8722C129.604 79.0027 129.273 80.1056 128.887 85.8685C128.721 88.5983 128.391 92.8722 128.198 95.3814C127.481 103.433 127.646 104.591 129.549 105.749C130.348 106.245 131.038 106.273 139.916 106.245C145.155 106.218 152.959 106.08 157.288 105.942C168.731 105.584 168.234 106.052 168.593 95.1057C168.731 91.3833 168.841 86.1167 168.841 83.3593C168.869 78.6167 168.841 78.3134 168.262 77.4586C167.049 75.6939 166.359 75.3905 163.464 75.3905C162.03 75.3905 160.872 75.3905 160.872 75.3905C160.872 75.3905 161.065 74.7839 161.286 74.0394C162.389 70.4273 160.9 66.5946 157.729 64.9953C156.488 64.3611 154.034 64.1129 152.517 64.499ZM155.937 67.3666C159.245 68.7453 159.659 73.7637 156.571 75.2803C151.966 77.4861 147.885 72.4677 151.139 68.6074C152.435 67.0909 154.172 66.6221 155.937 67.3666ZM148.381 76.6038C149.043 77.2656 149.953 77.817 150.698 78.01C152.352 78.4512 152.876 78.9751 152.876 80.1884C152.876 82.3943 150.918 84.352 148.767 84.352C147.113 84.352 145.927 83.6075 145.183 82.0909C144.438 80.5468 144.438 79.2509 145.183 78.01C145.652 77.238 147.058 75.5284 147.223 75.5284C147.251 75.5284 147.775 76.0247 148.381 76.6038ZM165.643 78.5615C166.111 79.4714 166.139 80.0505 165.946 87.3851C165.808 91.7141 165.753 96.7325 165.808 98.58C165.891 102.495 165.78 102.716 163.575 102.937C162.141 103.074 137.683 103.654 132.94 103.654C130.569 103.654 130.514 103.626 130.238 102.909C129.907 102.054 130.293 93.8373 131.065 85.5376C131.672 78.92 131.534 79.113 135.367 79.113C136.745 79.113 138.841 79.0303 139.971 78.9475L142.039 78.7545L142.177 80.6847C142.26 81.9531 142.536 83.0009 142.922 83.6902C143.611 84.9035 145.596 86.42 147.085 86.8336C148.161 87.1369 150.256 86.8612 151.911 86.1718C152.49 85.9237 152.986 85.7307 153.014 85.7307C153.069 85.7307 153.262 86.1718 153.427 86.6957C153.593 87.2196 154.255 88.102 154.889 88.6259C156.874 90.3355 159.08 90.5836 161.424 89.3704C163.354 88.4053 164.209 86.8888 164.209 84.4347C164.236 82.3667 163.712 81.3189 162.196 80.2159C160.955 79.306 159.218 79.113 157.205 79.692C155.992 80.0229 156.019 80.0505 155.771 79.0854C155.578 78.3685 155.633 78.3409 157.481 78.0376C159.769 77.6516 161.313 77.5413 163.492 77.5689C165.091 77.5964 165.174 77.624 165.643 78.5615ZM160.541 81.7601C162.472 83.1112 162.389 86.7233 160.404 87.6332C158.694 88.4053 156.461 87.5505 155.744 85.8685C155.109 84.3244 155.247 83.5799 156.433 82.3943C157.343 81.4843 157.674 81.3189 158.722 81.3189C159.383 81.3189 160.211 81.5119 160.541 81.7601Z" fill="black"/>
<path d="M159.301 93.8649C158.75 94.2509 158.667 94.5542 158.667 96.3465C158.667 98.7454 158.722 98.773 161.7 98.6351L163.492 98.5524L163.41 96.3465C163.355 95.1332 163.217 94.0303 163.079 93.92C162.968 93.7821 162.224 93.6443 161.397 93.5615C160.294 93.4513 159.742 93.534 159.301 93.8649Z" fill="black"/>
<path d="M151.498 94.1406C151.057 94.6921 151.25 98.0836 151.747 98.387C152.243 98.7178 154.945 98.9936 155.469 98.8006C155.827 98.6627 155.91 98.1939 155.91 96.4568C155.91 94.3612 155.883 94.2509 155.193 94.0027C154.09 93.5891 151.884 93.6719 151.498 94.1406Z" fill="black"/>
<path d="M125.413 116.586C124.476 116.999 123.648 118.268 123.648 119.26C123.648 120.529 123.841 120.887 124.917 121.714C125.716 122.321 125.937 122.376 126.461 122.1C127.205 121.714 140.744 121.714 142.509 122.128C143.419 122.321 143.639 122.266 144.356 121.632C145.294 120.777 145.625 119.371 145.183 118.212C144.604 116.723 144.356 116.668 134.816 116.503C129.715 116.42 125.744 116.448 125.413 116.586Z" fill="black"/>
<path d="M150.422 117.33C150.064 117.578 149.623 118.212 149.402 118.709C149.071 119.508 149.071 119.784 149.375 120.529C150.064 122.183 149.954 122.155 158.584 122.293C162.941 122.348 167.297 122.459 168.262 122.541C170.248 122.707 170.882 122.459 171.626 121.218C172.288 120.143 172.316 119.288 171.737 118.405C170.854 117.054 169.972 116.944 160.183 116.916C152.104 116.889 151.001 116.916 150.422 117.33Z" fill="black"/>
<path d="M123.566 126.264C122.794 126.926 122.546 127.367 122.546 128.029C122.546 129.049 122.849 129.518 124.145 130.4C124.945 130.951 125.303 131.007 126.765 130.869C128.75 130.703 141.158 131.089 141.985 131.365C142.344 131.475 142.895 131.31 143.502 130.896C145.294 129.683 145.267 127.036 143.447 126.098C142.84 125.795 141.985 125.712 140.248 125.768C138.925 125.823 134.871 125.74 131.204 125.602L124.559 125.382L123.566 126.264Z" fill="black"/>
<path d="M149.375 127.257C148.244 128.359 148.189 129.462 149.182 130.648C149.568 131.144 150.147 131.641 150.45 131.806C150.781 131.972 154.311 132.137 159.412 132.22C164.044 132.303 168.125 132.468 168.456 132.606C169.752 133.102 171.544 131.337 171.82 129.325C171.958 128.387 171.875 128.139 171.213 127.532C170.221 126.622 169.752 126.567 159.219 126.457L150.257 126.374L149.375 127.257Z" fill="black"/>
<path d="M120.698 186.264C118.823 186.705 118.134 188.801 119.32 190.51C120.533 192.33 120.671 192.358 133.024 192.689C145.129 193.02 155.331 193.571 161.838 194.26C169.145 195.005 171.351 194.784 172.178 193.295C172.62 192.441 172.509 191.007 171.903 190.042C171.131 188.773 169.89 188.222 167.491 188.112C166.36 188.084 161.59 187.836 156.875 187.615C152.187 187.395 143.557 187.009 137.711 186.788C131.866 186.567 125.799 186.319 124.2 186.264C122.601 186.181 121.029 186.209 120.698 186.264Z" fill="black"/>
<path d="M120.201 200.409C118.933 200.988 117.637 202.367 117.444 203.36C117.361 203.718 117.251 204.325 117.168 204.711C116.948 205.676 117.499 207.579 118.271 208.599C119.319 209.977 120.449 210.336 124.227 210.501C126.102 210.584 127.867 210.722 128.142 210.805C129.438 211.191 132.279 209.536 132.913 207.992C133.409 206.806 133.409 203.663 132.913 202.698C132.416 201.733 131.424 200.878 130.404 200.492C129.962 200.327 127.729 200.134 125.44 200.051C121.801 199.913 121.166 199.968 120.201 200.409ZM128.17 202.753C129.163 202.781 130.128 202.946 130.293 203.112C130.9 203.718 131.065 205.428 130.624 206.558C129.935 208.268 129.521 208.323 122.6 207.716C120.615 207.523 119.402 206.724 119.098 205.373C118.878 204.352 119.402 203.443 120.67 202.808C121.414 202.45 122.021 202.395 123.951 202.533C125.275 202.615 127.15 202.726 128.17 202.753Z" fill="black"/>
<path d="M139.834 201.099C138.456 201.595 137.987 202.036 137.408 203.332C136.388 205.538 136.884 208.957 138.456 210.805C139.586 212.128 140.248 212.321 144.412 212.487C148.134 212.652 148.465 212.625 149.651 212.045C150.698 211.549 151.057 211.136 151.691 209.867C152.491 208.24 152.711 205.897 152.243 204.242C151.939 203.139 150.505 201.623 149.485 201.292C147.886 200.823 141.02 200.658 139.834 201.099ZM148.796 204.077C150.202 204.794 150.45 207.606 149.237 209.123C148.658 209.867 148.63 209.867 146.149 209.702C141.958 209.398 141.599 209.288 140.303 208.102C139.586 207.441 139.09 206.724 139.09 206.393C139.09 205.511 140.083 204.049 140.799 203.884C142.647 203.47 147.886 203.58 148.796 204.077Z" fill="black"/>
<path d="M161.976 201.816C160.183 202.643 158.998 203.911 158.529 205.511C157.729 208.158 158.115 210.667 159.549 212.432C162.582 216.071 169.752 215.189 171.185 210.998C172.371 207.551 171.323 203.801 168.759 202.229C166.939 201.126 163.878 200.933 161.976 201.816ZM166.553 204.435C167.684 204.904 168.318 206.172 168.318 207.882C168.318 209.178 167.849 210.226 166.829 211.163C166.222 211.742 165.946 211.797 164.595 211.687C163.299 211.577 162.886 211.411 162.169 210.667C161.369 209.895 161.286 209.619 161.286 208.213C161.286 205.069 163.796 203.277 166.553 204.435Z" fill="black"/>
<path d="M128.765 145.901C128.695 145.92 128.579 145.945 128.502 145.958C128.227 146.016 128.22 146.124 128.265 149.873C128.31 154.261 128.323 159.378 128.297 170.283C128.284 178.017 128.291 178.695 128.387 178.887C128.509 179.11 128.714 179.315 128.823 179.315C128.861 179.309 137.031 179.328 146.983 179.347C163.295 180.236 165.54 182.213 165.758 182.124C166.118 181.648 165.745 180.55 165.758 162.717C165.758 153.922 165.739 146.662 165.713 146.579C165.669 146.463 165.688 146.425 165.81 146.374C165.938 146.323 165.925 146.316 165.701 146.323C165.56 146.323 162.559 146.297 159.032 146.252C155.505 146.214 149.791 146.156 146.335 146.118C135.889 146.009 130.965 145.945 129.631 145.901C129.227 145.881 128.836 145.888 128.765 145.901ZM139.698 146.918C139.718 146.93 145.405 146.956 152.331 146.982C159.263 147.007 164.97 147.039 165.021 147.052C165.098 147.077 165.104 149.387 165.066 162.864L165.177 180.707L162.824 180.236C161.412 179.818 156.991 178.938 153.412 178.887C149.834 178.842 144.29 178.496 141.237 178.484C138.185 178.477 134.19 178.452 132.356 178.426L129.022 178.388L128.983 178.196C128.913 177.831 129.015 148.613 129.099 147.436L129.137 146.802L134.402 146.847C137.294 146.873 139.673 146.905 139.698 146.918Z" fill="black"/>
<path d="M142.722 151.735C142.626 151.92 142.62 152.176 142.652 154.268C142.684 156.283 142.703 156.622 142.799 156.762L142.902 156.922L142.049 156.877C140.029 156.788 138.945 156.769 138.855 156.833C138.721 156.922 138.663 157.568 138.657 159.014C138.657 159.698 138.637 160.805 138.612 161.464L138.573 162.672L138.086 162.647C137.605 162.628 137.605 162.628 137.509 162.82C137.438 162.967 137.413 163.28 137.413 164.099C137.406 165.359 137.445 165.493 137.868 165.557C138.298 165.634 142.209 165.608 142.427 165.532C142.684 165.442 142.703 165.34 142.69 164.061C142.664 161.406 142.722 160.338 142.889 160.306C142.972 160.293 142.985 160.472 142.991 161.617C142.991 162.73 143.011 162.986 143.101 163.197C143.197 163.421 143.21 163.67 143.203 165.097L143.197 166.747L141.812 166.715C140.901 166.689 140.388 166.702 140.324 166.747C140.241 166.805 140.221 167.08 140.209 168.397C140.183 170.092 140.221 170.399 140.471 170.54C140.568 170.598 141.055 170.63 142.042 170.642L143.472 170.668L143.44 171.186C143.357 172.446 143.344 173.482 143.402 174.045C143.479 174.864 143.53 174.909 144.466 174.966C146.371 175.088 147.32 175.139 148.384 175.177L149.551 175.216L149.622 175.03C149.699 174.826 149.808 173.22 149.814 172.216C149.814 171.755 149.84 171.557 149.898 171.531C149.936 171.519 150.353 171.525 150.808 171.557C152.719 171.679 153.848 171.608 153.982 171.359C154.021 171.288 154.046 170.463 154.046 169.325C154.046 167.585 154.034 167.406 153.937 167.316C153.841 167.233 153.495 167.208 151.988 167.163C150.565 167.118 150.128 167.086 150.045 167.016C149.943 166.932 149.936 166.785 149.975 165.321C150 164.252 150.045 163.606 150.109 163.382C150.173 163.152 150.199 162.679 150.199 161.783C150.199 161.086 150.225 160.479 150.25 160.434C150.314 160.338 150.68 160.395 150.706 160.504C150.77 160.786 150.776 162.877 150.712 163.459C150.654 163.997 150.661 164.355 150.718 164.988C150.821 166.075 150.847 166.101 151.674 166.19C152.347 166.261 154.598 166.216 155.284 166.114C155.521 166.075 155.836 165.992 155.983 165.915L156.246 165.781L156.207 164.431C156.182 163.69 156.137 163.056 156.111 163.031C156.079 162.999 155.739 162.96 155.348 162.935L154.636 162.896L154.604 162.57C154.579 162.391 154.547 161.118 154.521 159.749C154.495 158.374 154.457 157.21 154.425 157.152C154.341 156.993 154.104 156.973 152.007 156.961L150.058 156.948L150.096 156.749C150.122 156.641 150.122 155.477 150.096 154.159C150.052 151.952 150.039 151.754 149.93 151.645C149.821 151.536 149.628 151.53 146.32 151.53H142.831L142.722 151.735ZM145.294 154.408V154.952H144.588H143.883L143.864 154.396C143.844 153.75 143.787 153.788 144.678 153.833L145.294 153.865V154.408ZM148.756 153.98C148.782 154.063 148.788 154.3 148.775 154.504L148.756 154.888L148.07 154.907L147.378 154.926V154.421C147.378 154.146 147.397 153.897 147.422 153.877C147.442 153.852 147.743 153.833 148.089 153.833C148.692 153.833 148.724 153.839 148.756 153.98ZM149.776 158.195C149.834 159.948 149.846 162.941 149.795 163.024C149.757 163.088 149.064 163.107 146.685 163.107C145.005 163.107 143.562 163.088 143.485 163.069L143.338 163.031V160.095V157.159L146.178 157.14C147.737 157.133 149.173 157.12 149.372 157.108L149.731 157.095L149.776 158.195ZM141.978 157.261L142.953 157.306V158.4C142.953 159.001 142.934 159.551 142.915 159.628C142.889 159.717 142.799 159.775 142.62 159.82L142.363 159.877L142.331 161.214C142.318 161.95 142.293 162.577 142.273 162.609C142.254 162.634 141.504 162.66 140.606 162.66H138.977V160.05C138.977 158.617 138.997 157.376 139.022 157.293L139.061 157.14L140.029 157.178C140.561 157.204 141.44 157.242 141.978 157.261ZM154.188 160.114C154.2 161.95 154.181 162.967 154.143 162.992C154.111 163.018 153.418 163.043 152.61 163.043H151.142L151.18 161.643C151.231 160.024 151.231 160.037 150.629 159.973L150.295 159.941L150.257 159.589C150.231 159.398 150.199 158.815 150.186 158.297L150.154 157.351L151.764 157.332C152.649 157.325 153.553 157.312 153.771 157.3L154.168 157.287L154.188 160.114ZM140.92 163.043H142.44V164.201V165.365L141.465 165.327C140.927 165.301 139.978 165.269 139.362 165.25C138.746 165.231 138.144 165.199 138.022 165.18L137.81 165.148L137.849 164.591C137.958 163.056 137.958 163.05 138.067 163.018C138.131 162.999 138.452 162.999 138.785 163.012C139.118 163.031 140.08 163.043 140.92 163.043ZM155.816 163.696C155.81 163.952 155.836 164.495 155.868 164.905L155.925 165.647L155.739 165.685C155.13 165.82 151.449 165.807 151.231 165.672C151.187 165.64 151.148 165.25 151.116 164.534L151.078 163.44L152.001 163.402C152.507 163.382 153.399 163.338 153.982 163.306C154.566 163.28 155.214 163.248 155.432 163.248L155.823 163.235L155.816 163.696ZM146.8 167.176C146.865 167.24 146.833 170.329 146.768 170.387C146.73 170.431 146.294 170.431 145.582 170.393C144.967 170.355 143.626 170.31 142.6 170.284C141.581 170.259 140.702 170.214 140.664 170.188C140.561 170.124 140.542 167.163 140.645 167.124C140.754 167.092 146.762 167.144 146.8 167.176Z" fill="black"/>
</svg>
