<svg width="258" height="240" viewBox="0 0 258 240" fill="none" xmlns="http://www.w3.org/2000/svg">
<path d="M163.548 1.50403C160.459 2.96844 160.343 3.00699 157.177 2.77576C152.968 2.506 151.463 3.19968 149.262 6.5139C148.412 7.78563 147.138 9.28859 146.482 9.82811C144.088 11.8706 142.775 15.7243 143.431 18.8459C144.011 21.4664 145.594 23.2006 148.605 24.3953L150.922 25.3202L150.883 27.0544C150.883 28.3261 150.575 29.251 149.802 30.33C148.49 32.2569 148.798 33.0662 151.385 34.3765C152.853 35.1472 153.355 35.6867 154.358 37.7292C156.057 41.1976 157.563 42.084 161.54 41.8142C164.011 41.66 164.32 41.6986 163.741 42.161C163.355 42.4308 161.888 42.9318 160.459 43.3171C156.521 44.2806 153.625 46.0533 150.15 49.4831C147.447 52.1808 146.752 53.1827 144.551 57.576L142.041 62.5859L140.111 62.4702C139.068 62.3932 134.281 61.9307 129.493 61.4297C121.809 60.5819 108.141 59.3102 106.828 59.3102C106.558 59.3102 106.017 58.1155 105.554 56.6126C104.666 53.6837 104.279 53.1442 101.731 51.5256C99.4917 50.1383 97.4066 50.0612 96.4028 51.3715C95.7464 52.2578 95.5919 52.2578 93.3525 51.8725C92.0783 51.6798 90.5724 51.6027 90.0319 51.7183C88.8735 52.0266 87.9855 53.8379 88.2944 55.1481C88.526 55.996 88.4488 56.0345 86.3252 56.073C84.9352 56.073 83.6996 56.3428 82.966 56.7667C78.7573 59.1946 78.7187 59.2716 79.491 59.5414C79.9157 59.6956 81.0354 60.3121 81.9621 60.9288C83.3521 61.7766 84.1629 62.0078 85.9005 62.0078C88.0627 62.0078 88.1399 62.0463 88.526 63.241C88.7577 63.9347 89.028 65.4762 89.1438 66.6323C89.5685 70.0621 90.1091 71.3339 91.9624 73.0295L93.7 74.6481L93.0822 77.153C91.5763 83.1263 92.8891 87.7123 97.4066 92.3753C102.696 97.8091 113.778 103.012 122.311 104.091C126.906 104.669 132.196 103.898 138.952 101.663C144.551 99.813 147.833 97.9247 150.961 94.7646L153.316 92.4138L153.586 95.6125C153.741 97.3852 154.127 100.121 154.436 101.701C155.169 105.517 155.092 107.79 154.243 111.528C152.003 121.086 150.922 126.25 149.571 133.687C147.601 144.632 145.362 156.232 143.238 166.637C142.273 171.3 140.883 178.044 140.149 181.667C139.416 185.251 138.026 191.494 137.022 195.54C135.671 201.166 135.169 204.134 134.86 208.412C134.628 211.495 134.551 214.308 134.667 214.732C134.976 215.888 134.319 216.736 131.964 218.508C128.798 220.821 124.589 222.825 118.643 224.751C112.388 226.794 111.23 227.372 109.338 229.183C107.754 230.648 107.6 231.341 108.334 232.921C109.338 235.157 112.311 235.812 118.102 235.041C119.801 234.81 123.045 234.848 126.751 235.079C131.771 235.426 133.315 235.388 136.906 234.81C140.613 234.232 141.655 234.232 145.13 234.656C151.038 235.388 153.934 234.694 155.208 232.266C156.019 230.725 156.521 225.368 156.25 221.09C156.019 217.969 156.096 217.661 156.984 216.466C159.301 213.344 161.115 209.375 163.702 201.59C166.135 194.345 170.228 174.383 172.004 161.357C174.243 144.516 175.826 137.233 178.413 131.683C180.035 128.177 180.962 127.175 181.927 127.753C183.819 128.947 185.749 134.535 187.448 143.63C188.066 147.176 188.761 150.682 188.954 151.415C189.147 152.147 189.997 156.386 190.846 160.856C191.696 165.288 192.931 170.953 193.588 173.381C194.244 175.809 195.866 182.129 197.256 187.447C201.387 203.517 205.287 213.884 208.646 217.815L209.997 219.395L210.113 225.946C210.345 236.081 210.152 235.927 222.508 235.773C227.102 235.735 235.906 235.735 242.045 235.773C257.219 235.889 256.022 235.966 257.181 234.81C258.03 233.962 258.107 233.654 257.876 232.035C257.335 228.528 256.061 227.526 249.227 225.214C243.589 223.326 234.593 219.048 232.546 217.352C231.234 216.235 231.118 215.965 230.848 213.383C230.114 205.637 229.149 201.359 220.345 167.408C219.419 163.785 218.144 158.583 217.488 155.846C213.781 139.892 212.314 133.456 210.384 124.554C209.225 119.082 207.835 113.108 207.295 111.259C206.136 107.212 206.136 106.942 207.063 103.05C207.488 101.355 207.951 99.5047 208.067 98.9267C208.221 98.1945 208.723 97.6164 209.727 97.1154C211.735 96.0749 215.133 92.3753 216.677 89.485C219.341 84.4751 220.307 76.3052 218.917 70.3319C217.643 64.9366 214.129 56.7667 211.426 52.9515C209.032 49.5217 204.322 45.2826 201.04 43.5869C195.557 40.7737 192.506 39.9644 186.792 39.7332L181.695 39.579L181.502 38.5385C181.386 37.999 181.155 37.2282 181 36.8043C180.769 36.2263 180.884 36.1492 181.502 36.3419C182.468 36.6502 185.016 34.7233 185.943 32.9891C187.024 30.9852 186.831 27.8636 185.518 25.166C184.475 23.0464 184.359 22.5069 184.244 17.6898C184.128 13.2579 183.973 12.1789 183.201 10.4447C182.043 7.8627 180.421 6.47536 177.294 5.35777C175.209 4.62556 174.629 4.24019 173.741 2.85284C173.046 1.73526 172.197 1.00304 171.154 0.579132C168.722 -0.384308 167.062 -0.19162 163.548 1.50403ZM166.212 23.6245C168.49 25.7055 171.849 25.9753 174.243 24.2796C175.711 23.2391 176.792 23.2391 177.525 24.3182C178.452 25.6285 178.259 26.5148 176.792 27.9792C175.286 29.4822 175.209 29.8676 176.019 30.9466C176.328 31.332 177.101 33.336 177.718 35.3784C179.456 41.159 179.456 40.8893 178.027 42.2766C176.406 43.8181 175.131 44.2806 172.313 44.2806C168.954 44.2806 167.564 43.5869 166.869 41.5059C166.328 40.0029 166.174 39.8488 165.17 39.9644C160.691 40.4654 158.953 39.6946 156.598 36.1877C155.594 34.6462 154.436 33.413 153.625 32.9891C152.891 32.6423 152.273 32.1798 152.273 32.0257C152.273 31.8715 152.66 30.6769 153.084 29.4437C153.818 27.4012 153.856 26.9387 153.432 25.2816C153.161 24.2411 153.046 23.3548 153.123 23.2391C153.239 23.1621 154.127 23.3548 155.131 23.7016C157.447 24.5109 160.807 24.2796 162.892 23.2006C163.741 22.7767 164.513 22.3913 164.59 22.3528C164.668 22.3528 165.401 22.8923 166.212 23.6245ZM191.116 42.3922C198.337 43.8952 205.364 48.8665 209.495 55.3023C213.164 61.0058 216.021 69.1372 216.6 75.3032C217.102 81.1609 214.862 88.5601 211.387 92.4909C209.495 94.649 205.789 96.653 201.117 98.0403C196.87 99.312 187.912 99.813 183.858 99.0038C177.68 97.8091 173.471 95.4968 170.845 91.8358C167.564 87.2884 168.065 81.6234 171.927 79.2726C173.857 78.0779 178.104 78.1935 182.12 79.5038C185.711 80.6985 188.375 80.7755 191.696 79.735C195.866 78.4633 197.873 75.8813 198.684 70.7558C199.148 67.7884 198.877 65.2064 198.221 66.2855C198.028 66.5552 197.372 68.2894 196.792 70.0621C195.518 74.1086 194.012 75.9198 191.039 77.0374C188.221 78.0779 185.981 78.0008 182.043 76.8062C179.688 76.074 177.718 75.7657 175.286 75.7271C172.004 75.6501 171.811 75.6115 170.961 74.4939C170.459 73.8773 169.301 71.7578 168.413 69.8309C167.525 67.8655 166.637 66.2469 166.405 66.2469C166.174 66.2469 164.938 65.7845 163.664 65.2449C158.953 63.241 155.362 62.7015 154.127 63.8191C153.47 64.3971 153.277 64.3971 152.544 63.9347C152.08 63.6649 150.266 63.3181 148.528 63.241C146.752 63.1254 145.323 62.8942 145.323 62.7015C145.323 62.5088 145.864 60.9673 146.52 59.2716C148.026 55.4179 150.922 51.0246 153.123 49.3675C155.401 47.5948 159.648 45.6294 162.776 44.8586C165.285 44.2421 165.44 44.2421 166.444 44.9743C170.537 47.826 179.07 46.6314 181.271 42.9318L182.12 41.5059L185.827 41.7757C187.873 41.9298 190.228 42.1996 191.116 42.3922ZM100.148 53.2598C100.496 53.5296 101.306 54.6086 102.001 55.7262C103.469 57.9999 104.897 64.0117 104.704 66.9791L104.588 68.7518L102.465 69.0602C100.032 69.3685 97.7928 70.2163 96.1711 71.3339L95.09 72.1046L93.893 71.0256C93.2366 70.409 92.3872 69.1758 91.9624 68.2509C91.1516 66.4396 90.5338 61.2371 91.1516 61.2371C91.3447 61.2371 92.0011 61.738 92.6188 62.3932C93.9702 63.8191 94.8969 63.8576 95.7464 62.5473C96.3641 61.661 96.5958 61.5839 98.063 61.8151C99.4917 62.0078 99.7619 61.9307 100.148 61.1985C100.92 59.8112 100.418 56.4969 99.26 54.7628C98.6808 53.9535 98.2175 53.1827 98.2175 53.0286C98.2175 52.6047 99.5303 52.7588 100.148 53.2598ZM94.5494 54.2232C96.0166 55.1481 97.9858 57.9614 97.6769 58.7321C97.2136 60.0039 95.3216 58.9633 91.113 55.0325C90.611 54.5701 91.6149 53.5296 92.5802 53.5296C93.0049 53.5296 93.9316 53.8379 94.5494 54.2232ZM92.0397 58.9633C92.5416 59.8882 92.5416 60.0809 91.9238 60.0809C91.0744 60.0809 90.2249 59.1946 89.9546 58.0385L89.6844 56.9594L90.6883 57.6145C91.2288 57.9614 91.8466 58.578 92.0397 58.9633ZM117.33 62.8942C122.658 63.4337 129.686 64.0888 133.006 64.3201C136.327 64.5898 139.57 64.8981 140.188 65.0137L141.346 65.2835L139.454 69.5611C138.412 71.9505 136.945 74.571 136.211 75.4574C134.358 77.6155 130.844 79.234 126.906 79.8121C122.504 80.4287 121.075 79.8506 116.674 75.6115C114.01 73.068 112.62 72.0661 110.11 70.8714L106.905 69.3685L106.982 65.5918C107.059 61.1985 107.021 61.5068 107.407 61.7766C107.561 61.8537 112.04 62.3932 117.33 62.8942ZM161.038 66.0928C162.698 66.7094 165.401 69.2914 165.401 70.2934C165.401 70.7558 164.822 70.6017 162.814 69.5997C161.347 68.8675 159.185 67.904 157.949 67.403C156.752 66.9406 155.633 66.3625 155.517 66.1698C154.783 65.0137 157.911 64.9752 161.038 66.0928ZM150.034 66.1313C151.192 66.3625 151.154 67.0177 149.995 67.0177C149.609 67.0177 148.991 67.3645 148.605 67.7884C147.949 68.5206 147.949 68.5977 148.528 69.2528C149.262 70.0621 149.339 70.987 148.798 72.0275C148.49 72.6056 148.837 73.068 151.115 74.9178C153.741 77.0759 153.818 77.153 153.818 78.9258C153.818 84.6678 151.965 88.9455 147.679 93.2617C144.088 96.8842 140.883 98.5028 134.512 99.9286C123.431 102.434 118.102 102.164 110.38 98.6569C104.473 95.9593 100.302 92.6451 97.7541 88.5601C96.48 86.5562 95.5147 82.8951 95.5147 80.159C95.5147 76.3823 96.2869 74.571 98.565 73.2607C100.109 72.3358 100.727 72.2202 103.623 72.2202C108.295 72.2202 110.998 73.6076 115.863 78.5018C118.295 80.9297 121.268 82.4326 123.701 82.4326C127.06 82.4326 131.771 81.7004 133.701 80.8526C135.864 79.9277 138.837 77.0374 140.381 74.3398C140.96 73.3763 142.041 70.987 142.852 68.9831L144.319 65.3991L146.675 65.6689C147.949 65.7845 149.455 66.0157 150.034 66.1313ZM156.714 68.5592C157.988 69.1758 159.725 70.2934 160.575 71.0256L162.119 72.3358L161.115 72.7983C160.189 73.2222 159.803 73.068 156.714 71.1026C154.86 69.9465 153.2 68.906 153.046 68.8675C152.891 68.7904 152.621 68.3279 152.466 67.827C152.196 66.9791 152.273 66.9406 153.277 67.1718C153.895 67.326 155.44 67.9426 156.714 68.5592ZM155.98 72.7212C157.216 73.5305 159.03 74.6095 159.918 75.1105L161.617 76.074L162.235 75.2261C162.621 74.8022 163.394 73.8003 163.973 73.0295C164.668 72.1431 165.363 71.6422 165.98 71.6422C166.753 71.6422 167.023 72.0275 167.872 74.2627C168.413 75.6886 168.876 77.0759 168.876 77.3072C168.876 77.5769 168.181 78.8487 167.332 80.159C166.482 81.4692 165.787 82.7024 165.787 82.8951C165.787 83.4732 163.857 83.2419 161.965 82.3941C160.189 81.6234 159.108 80.5828 155.98 76.4979C155.208 75.4574 153.856 74.1086 153.007 73.492C151.27 72.2588 151.115 71.7578 152.389 71.5266C152.853 71.4495 153.355 71.3339 153.47 71.2953C153.586 71.2953 154.706 71.9119 155.98 72.7212ZM157.525 82.0858C158.76 83.3961 161.27 84.7834 163.741 85.5156C165.092 85.9396 165.401 86.2093 165.633 87.2113C166.135 89.6391 168.413 93.4929 170.382 95.2271C175.556 99.8901 185.17 102.357 194.283 101.393C196.561 101.123 199.92 100.507 201.812 100.044L205.171 99.1194V99.9286C205.171 100.391 204.785 101.547 204.322 102.472C203.549 103.937 203.009 104.399 200.692 105.555C194.476 108.638 188.491 109.833 179.494 109.833C174.9 109.833 172.429 109.64 169.842 109.101C166.174 108.33 161.502 106.519 159.185 104.977C157.949 104.168 157.718 103.782 157.332 101.624C156.057 94.5334 155.208 80.8912 156.057 80.8912C156.25 80.8912 156.868 81.4307 157.525 82.0858ZM138.528 218.894C141.462 221.206 147.061 222.054 151.231 220.821L153.818 220.05V224.867C153.818 227.526 153.625 230.031 153.432 230.416C152.737 231.765 149.493 232.382 144.937 232.112C142.119 231.958 139.339 232.074 135.864 232.536C131.771 233.037 129.145 233.114 121.693 232.883C116.674 232.729 112.349 232.497 112.079 232.305C111.693 232.074 111.693 231.919 112.079 231.418C113.006 230.301 115.052 229.299 120.303 227.372C129.068 224.135 131.037 223.094 135.246 219.51C136.172 218.74 137.061 218.084 137.215 218.084C137.369 218.084 137.949 218.47 138.528 218.894ZM236.446 223.094C237.412 223.595 240.192 224.713 242.624 225.638C251.891 229.029 252.586 229.337 253.976 230.686C257.181 233.808 256.099 234.039 240.693 233.654C233.782 233.461 225.674 233.345 222.701 233.422C213.434 233.654 212.971 233.268 212.584 225.676C212.391 221.283 212.43 221.09 213.125 221.283C218.801 223.017 224.091 222.324 227.411 219.472L228.878 218.239L231.774 220.204C233.396 221.322 235.481 222.632 236.446 223.094Z" fill="black"/>
<path d="M31.1114 26.7075C30.2233 27.0158 29.2194 27.4783 28.9105 27.7095C28.1383 28.3261 28.1383 32.4881 28.9105 37.999C29.2194 40.2727 29.5283 43.3557 29.5669 44.8587L29.6827 47.5563L25.0494 47.4407C22.501 47.4021 16.5163 47.1709 11.7285 46.9011C6.94064 46.6699 2.53895 46.5928 1.95978 46.747C1.3806 46.8626 0.646988 47.4021 0.338097 47.9031C-0.241074 48.7509 -0.163851 50.2154 1.26477 66.1313C3.31117 88.7143 3.85173 95.0729 4.77841 108.06C5.20313 113.995 5.62786 119.467 5.74369 120.199C5.85952 120.932 6.20703 125.749 6.51592 130.913C6.86342 136.038 7.21092 140.509 7.32676 140.817C7.67426 141.703 9.8365 141.896 16.3232 141.626C24.1227 141.318 29.8758 141.241 30.1075 141.472C30.2619 141.665 28.7561 152.802 25.8602 172.225C25.1266 177.196 24.393 181.782 24.2772 182.437C24.1999 183.054 23.4663 187.563 22.7327 192.457C21.9605 197.313 20.7635 204.596 20.0299 208.643C19.2963 212.651 18.331 218.2 17.9063 220.936C17.4429 223.672 16.6707 227.95 16.1688 230.378C14.8174 237.16 14.7015 238.586 15.3193 239.473C15.8213 240.089 16.0529 240.128 16.8638 239.781C17.9835 239.28 18.4854 237.546 19.0646 231.958C19.528 227.95 20.1843 223.788 22.7327 208.643C26.0533 189.258 30.4164 162.051 31.8064 151.993C32.4628 147.33 33.0805 142.936 33.1964 142.243L33.3894 141.01H37.3278C39.49 141.01 42.1542 140.894 43.2353 140.778L45.2431 140.509L45.4748 144.902C45.5906 147.33 45.8995 152.686 46.0926 156.81C46.3242 160.933 46.749 169.103 47.0579 174.923C47.3668 180.742 47.7915 188.912 48.0232 193.035C48.2162 197.159 48.4865 201.86 48.6023 203.44C48.9498 209.105 49.1815 214.5 49.2201 220.397C49.2587 223.711 49.4518 226.601 49.6448 226.832C50.2626 227.603 51.421 227.41 51.8843 226.524C52.3476 225.676 51.9615 215.04 50.919 199.586C50.6101 195.039 50.1854 187.486 49.9537 182.823C49.7607 178.16 49.2973 168.795 48.9884 162.012C48.6795 155.23 48.332 147.677 48.2162 145.172L48.0232 140.701L52.3862 140.431C54.7415 140.277 57.7532 140.239 59.0274 140.316L61.3441 140.431L62.1935 144.093C62.6955 146.097 63.5449 149.912 64.0855 152.571C64.626 155.23 66.2863 162.167 67.715 167.986C73.275 190.26 79.4914 215.58 81.6151 224.559C82.8506 229.723 84.0862 234.193 84.3178 234.501C84.9356 235.195 86.789 235.195 87.4068 234.463C87.7543 234.039 87.7543 233.538 87.2523 232.074C84.6654 224.058 73.5839 180.626 69.8386 163.939C69.298 161.396 67.8694 155.307 66.7111 150.413C65.5527 145.557 64.626 141.202 64.626 140.74C64.626 139.969 64.8191 139.931 72.4642 139.776C80.6884 139.584 82.1556 139.314 82.7348 137.849C83.2367 136.501 84.0476 132.878 83.8545 132.724C83.7773 132.608 82.7348 132.416 81.5764 132.262L79.4914 131.953L78.835 127.907C78.4489 125.672 77.3678 117.271 76.4025 109.216C75.4758 101.162 74.2403 90.9109 73.6997 86.4791C72.5414 77.153 71.4989 67.4416 70.6108 57.7687C70.2633 54.0691 69.8386 50.909 69.6841 50.7164C69.4525 50.4851 59.9541 49.7915 46.9806 49.0592C44.3551 48.9436 42.2314 48.7509 42.2314 48.6739C42.2314 48.5968 41.9612 46.747 41.6523 44.5889C40.9573 39.6176 40.8414 38.5771 40.2623 33.0277L39.7989 28.5573L37.7525 27.5168C35.2428 26.2451 33.2736 26.0139 31.1114 26.7075ZM20.416 50.832C25.5127 51.0632 34.8181 51.4871 41.0731 51.8339C47.3281 52.1422 55.6296 52.4891 59.5293 52.6432C63.3905 52.7588 66.5566 52.9901 66.5566 53.1442C66.5566 53.2984 67.0972 57.576 67.715 62.6244C68.3714 67.7114 69.0664 73.2993 69.298 75.1105C69.8386 79.7736 73.0047 104.9 73.6611 110.064C74.8195 118.619 76.2095 131.876 76.0164 132.069C75.9006 132.223 70.9969 132.416 65.0894 132.57C30.0689 133.456 12.5007 133.803 12.3076 133.649C12.1918 133.533 11.8443 130.258 11.5354 126.327C11.2265 122.435 10.6087 115.151 10.184 110.18C9.72066 105.208 8.87121 94.6105 8.25343 86.6718C7.63565 78.7331 6.86342 69.3685 6.55453 65.8616C6.24564 62.3547 5.85952 57.3833 5.70508 54.8013L5.4348 50.0612L8.29204 50.2539C9.87511 50.3695 15.3193 50.6393 20.416 50.832Z" fill="black"/>
<path d="M31.845 63.1144C31.6262 63.5789 31.6117 64.2195 31.6846 69.4567C31.7575 74.5018 31.8012 75.3506 32.02 75.703L32.2533 76.1034L30.3137 75.9913C25.72 75.767 23.2554 75.719 23.0512 75.8791C22.7449 76.1034 22.6137 77.721 22.5991 81.3406C22.5991 83.0543 22.5553 85.8251 22.497 87.4747L22.4095 90.5017L21.3012 90.4376C20.2074 90.3896 20.2074 90.3896 19.9887 90.8701C19.8282 91.2384 19.7699 92.0232 19.7699 94.0733C19.7553 97.2284 19.8428 97.5647 20.8053 97.7249C21.7824 97.9171 30.6783 97.853 31.1742 97.6608C31.7575 97.4366 31.8012 97.1804 31.7721 93.9772C31.7137 87.3306 31.845 84.6559 32.2242 84.5758C32.4137 84.5438 32.4429 84.9922 32.4575 87.8591C32.4575 90.6459 32.5012 91.2865 32.7054 91.815C32.9242 92.3756 32.9533 93.0002 32.9388 96.5718L32.9242 100.704L29.7741 100.624C27.7033 100.56 26.5366 100.592 26.3908 100.704C26.2012 100.848 26.1575 101.537 26.1283 104.836C26.07 109.08 26.1575 109.849 26.7262 110.201C26.945 110.345 28.0533 110.426 30.2991 110.458L33.5513 110.522L33.4783 111.819C33.2888 114.974 33.2596 117.569 33.3908 118.978C33.5658 121.028 33.6825 121.14 35.8117 121.284C40.143 121.589 42.3013 121.717 44.7222 121.813L47.3763 121.909L47.5368 121.445C47.7118 120.932 47.9597 116.912 47.9743 114.398C47.9743 113.244 48.0326 112.748 48.1639 112.684C48.2514 112.652 49.1993 112.668 50.2347 112.748C54.5806 113.052 57.1472 112.876 57.4535 112.251C57.541 112.075 57.5993 110.009 57.5993 107.158C57.5993 102.802 57.5702 102.354 57.3514 102.129C57.1327 101.921 56.3452 101.857 52.9181 101.745C49.6805 101.633 48.6889 101.553 48.4993 101.377C48.2659 101.168 48.2514 100.8 48.3389 97.1323C48.3972 94.4577 48.4993 92.84 48.6451 92.2795C48.7909 91.7029 48.8493 90.5177 48.8493 88.2755C48.8493 86.5298 48.9076 85.0082 48.9659 84.8961C49.1118 84.6559 49.943 84.8 50.0014 85.0723C50.1472 85.777 50.1618 91.0142 50.0159 92.4717C49.8847 93.817 49.8993 94.7139 50.0305 96.2995C50.2639 99.0222 50.3222 99.0863 52.2035 99.3105C53.7347 99.4867 58.8535 99.3745 60.4139 99.1183C60.9535 99.0222 61.6681 98.814 62.0035 98.6218L62.6014 98.2855L62.514 94.9061C62.4556 93.0482 62.3535 91.4627 62.2952 91.3986C62.2223 91.3185 61.4494 91.2224 60.5598 91.1584L58.941 91.0623L58.8681 90.2455C58.8098 89.797 58.7368 86.6098 58.6785 83.1824C58.6202 79.739 58.5327 76.8241 58.4598 76.6799C58.2702 76.2795 57.7306 76.2315 52.9618 76.1995L48.5284 76.1674L48.6159 75.6709C48.6743 75.3987 48.6743 72.4838 48.6159 69.1845C48.5139 63.659 48.4847 63.1625 48.2368 62.8902C47.9889 62.6179 47.5513 62.6019 40.0263 62.6019H32.0929L31.845 63.1144ZM37.6929 69.8091V71.1705H36.0888H34.4846L34.4408 69.7771C34.3971 68.1595 34.2658 68.2555 36.2929 68.3677L37.6929 68.4477V69.8091ZM45.568 68.736C45.6263 68.9442 45.6409 69.5368 45.6118 70.0493L45.568 71.0103L44.0076 71.0583L42.4326 71.1064V69.8411C42.4326 69.1524 42.4763 68.5278 42.5346 68.4798C42.5784 68.4157 43.2638 68.3677 44.0513 68.3677C45.4222 68.3677 45.4951 68.3837 45.568 68.736ZM47.8868 79.2905C48.018 83.6789 48.0472 91.1744 47.9305 91.3826C47.843 91.5427 46.268 91.5908 40.8576 91.5908C37.0367 91.5908 33.7554 91.5427 33.5804 91.4947L33.245 91.3986V84.0473V76.696L39.7055 76.6479C43.2492 76.6319 46.5159 76.5999 46.968 76.5678L47.7847 76.5358L47.8868 79.2905ZM30.1533 76.9522L32.37 77.0643V79.8031C32.37 81.3086 32.3262 82.6859 32.2825 82.8781C32.2242 83.1023 32.02 83.2465 31.6117 83.3586L31.0283 83.5027L30.9554 86.8501C30.9262 88.6919 30.8679 90.2615 30.8242 90.3416C30.7804 90.4056 29.0741 90.4697 27.0325 90.4697H23.3283V83.9352C23.3283 80.3476 23.372 77.2405 23.4304 77.0323L23.5179 76.6479L25.72 76.744C26.9304 76.8081 28.9283 76.9042 30.1533 76.9522ZM57.9202 84.0953C57.9493 88.6919 57.9056 91.2384 57.8181 91.3025C57.7452 91.3666 56.1702 91.4306 54.3326 91.4306H50.993L51.0805 87.9231C51.1972 83.8711 51.1972 83.9031 49.8264 83.743L49.068 83.6629L48.9805 82.782C48.9222 82.3015 48.8493 80.8441 48.8201 79.5468L48.7472 77.1764L52.4076 77.1284C54.4201 77.1124 56.4764 77.0803 56.9722 77.0483L57.8764 77.0163L57.9202 84.0953ZM27.747 91.4306H31.2033V94.3295V97.2444L28.9866 97.1483C27.7616 97.0843 25.6033 97.0042 24.2033 96.9561C22.8033 96.9081 21.4324 96.828 21.1553 96.78L20.6741 96.6999L20.7616 95.3065C21.0095 91.4627 21.0095 91.4467 21.2574 91.3666C21.4033 91.3185 22.1324 91.3185 22.8908 91.3506C23.6491 91.3986 25.8366 91.4306 27.747 91.4306ZM61.6244 93.0643C61.6098 93.7049 61.6681 95.0663 61.741 96.0913L61.8723 97.9491L61.4494 98.0452C60.0639 98.3816 51.693 98.3495 51.1972 98.0132C51.0951 97.9331 51.0076 96.9561 50.9347 95.1624L50.8472 92.4236L52.9472 92.3275C54.0993 92.2795 56.1264 92.1674 57.4535 92.0873C58.7806 92.0232 60.2535 91.9431 60.7494 91.9431L61.6389 91.9111L61.6244 93.0643ZM41.1201 101.777C41.2659 101.937 41.193 109.673 41.0471 109.817C40.9596 109.929 39.968 109.929 38.3492 109.833C36.9492 109.737 33.9013 109.625 31.5679 109.561C29.2491 109.497 27.2512 109.385 27.1637 109.32C26.9304 109.16 26.8866 101.745 27.12 101.649C27.3679 101.569 41.0326 101.697 41.1201 101.777Z" fill="black"/>
</svg>
