<svg width="320" height="240" viewBox="0 0 320 240" fill="none" xmlns="http://www.w3.org/2000/svg">
<path d="M150.492 0.466339C141.82 2.89935 137.824 8.52321 139.782 15.6627C140.981 20.09 140.341 22.1242 135.466 29.6625C130.71 36.9616 128.792 41.6282 128.792 45.9358C128.792 47.0526 128.552 48.2492 128.313 48.6081C128.033 48.9671 125.555 51.0412 122.798 53.2348C114.766 59.6165 111.449 63.5253 107.852 70.6648C104.256 77.924 102.817 83.7074 102.817 91.0064C102.817 98.9835 104.815 104.209 110.21 110.431C111.848 112.305 114.126 114.459 115.285 115.217C116.404 115.935 117.483 116.653 117.683 116.772C117.843 116.892 117.483 118.886 116.804 121.24C114.166 130.613 113.447 135.2 111.808 152.231C111.249 158.054 110.45 166.669 110.01 171.376C108.811 183.82 107.732 193.153 106.813 199.296C105.654 206.993 105.414 210.982 106.014 214.372C106.453 217.045 106.453 217.364 105.774 218.122C104.735 219.238 101.498 220.794 95.6237 222.988C82.3164 227.973 77.9205 231.603 78.5599 237.027C78.9196 240.178 77.7607 240.019 96.1432 239.899L112.528 239.779L113.806 237.984C115.205 236.03 116.844 235.153 117.923 235.831C118.282 236.07 119.002 236.868 119.481 237.626C121.04 239.979 121.04 239.979 124.596 239.979C127.913 239.979 127.953 239.979 128.952 238.663C130.591 236.509 131.19 234.634 131.43 230.725C131.55 228.691 132.189 224.902 132.828 222.309C133.867 218.241 134.587 212.617 135.346 203.284C135.426 202.088 135.706 198.857 135.905 196.105C136.585 188.128 137.184 176.84 137.584 164.795C137.983 152.829 138.743 140.066 139.102 139.068C139.222 138.749 139.542 140.544 139.822 143.057C142.18 163.279 144.777 179.831 149.013 201.689C152.809 221.233 153.449 223.506 155.966 226.218C156.926 227.255 157.125 227.893 157.325 230.606C157.645 234.195 158.604 236.708 160.202 238.184C161.241 239.141 161.521 239.181 166.037 239.181C171.312 239.181 170.872 239.38 173.869 235.631C175.788 233.278 176.747 233.398 179.544 236.389L181.782 238.822L224.941 238.583C276.612 238.304 318.652 237.346 319.611 236.349C319.891 236.07 319.731 235.711 319.131 235.232C318.132 234.395 314.895 234.195 292.437 233.597C284.964 233.398 278.81 233.198 278.77 233.198C278.49 233.198 278.69 217.164 279.089 199.535L279.569 180.43L276.012 177.119C272.576 173.968 272.496 173.809 273.255 173.21C273.695 172.891 277.931 170.578 282.646 168.145C287.362 165.712 291.717 163.359 292.357 162.92C293.676 162.003 293.756 160.567 292.637 158.692C291.518 156.857 279.929 143.536 279.05 143.057C277.811 142.379 276.852 142.618 275.253 143.855C273.695 145.091 272.096 145.37 271.057 144.533C270.737 144.254 268.859 142.14 266.941 139.746C264.983 137.393 263.185 135.479 262.865 135.479C262.585 135.479 260.307 137.114 257.79 139.108C252.675 143.177 248.838 145.849 248.079 145.849C247.799 145.849 246.241 144.293 244.642 142.339C240.206 137.034 237.009 133.883 236.09 133.883C235.651 133.923 233.932 134.88 232.294 136.117C225.261 141.262 223.742 142.259 223.063 142.259C222.663 142.259 222.024 141.821 221.664 141.262C221.304 140.704 218.907 138.749 216.349 136.955C209.915 132.408 208.037 130.413 206.399 126.505C204.88 122.875 202.922 119.365 197.927 111.348C196.008 108.237 193.611 104.129 192.612 102.174C189.734 96.3511 185.858 84.6646 183.5 74.4539C181.942 67.7133 180.583 64.4826 177.786 60.6935C174.709 56.5453 172.231 54.1921 168.435 51.7591C164.438 49.2064 163.959 48.7278 163.959 47.4116C163.959 43.9415 166.117 40.99 169.234 40.2322C170.193 39.9929 171.592 39.3547 172.351 38.8761C173.55 38.0784 173.869 37.52 174.429 35.1667C174.908 33.2921 175.428 32.1753 175.987 31.7765C177.666 30.5799 178.745 29.2637 178.745 28.3463C178.745 27.8278 178.105 26.5913 177.346 25.5543C176.587 24.5572 175.947 23.5202 175.947 23.241C175.947 22.2039 177.586 21.3265 181.982 20.0102C193.451 16.5801 196.808 13.9875 194.49 10.4377C193.291 8.60298 190.534 8.16425 181.063 8.32379L172.591 8.44344L170.632 6.3694C166.756 2.26118 162.4 0.386566 156.246 0.0674896C153.689 -0.0920563 151.93 0.0276031 150.492 0.466339ZM159.483 2.89935C163.24 3.65718 166.676 5.41214 168.634 7.56596C169.953 9.04172 169.993 9.20126 169.394 9.67989C168.554 10.2782 155.247 13.5089 150.172 14.3864C146.815 14.9448 144.018 15.224 142.899 15.0644C142.18 14.9847 141.86 11.7938 142.379 9.79955C142.979 7.52608 146.655 3.85661 149.213 2.93924C151.531 2.14153 155.647 2.10164 159.483 2.89935ZM193.531 11.7141C194.05 12.2326 194.01 12.3522 193.211 13.0303C192.731 13.4291 191.573 14.0274 190.614 14.3864C187.496 15.5032 177.626 18.6142 177.186 18.6142C176.986 18.6142 176.667 17.9362 176.547 17.0986C176.427 16.3009 176.147 14.8251 175.907 13.8679C175.708 12.9106 175.668 11.9534 175.828 11.7938C176.267 11.395 187.057 10.7568 190.334 10.9562C191.852 11.0759 193.171 11.3551 193.531 11.7141ZM173.75 20.1698L173.47 25.315L174.469 25.9532C174.988 26.3121 175.628 27.07 175.907 27.6284C176.307 28.5058 176.267 28.8249 175.708 29.4232C175.348 29.862 174.828 30.181 174.549 30.181C173.67 30.181 172.711 31.6568 171.951 34.1696C170.832 37.9188 170.393 38.3576 166.756 39.5541C163.879 40.5114 163.479 40.7906 162.8 42.0669C162.4 42.9045 161.841 44.4999 161.561 45.6167C161.321 46.7734 161.002 47.7307 160.922 47.7307C160.842 47.7307 159.203 47.2121 157.325 46.5341C153.209 45.1381 148.374 42.5854 148.374 41.8675C148.374 41.5484 148.813 40.2721 149.373 38.9558C149.932 37.6795 150.811 34.9274 151.371 32.8932C151.89 30.8591 152.45 28.785 152.61 28.2665C152.809 27.6284 152.69 27.3891 152.25 27.3891C151.89 27.3891 151.091 26.9104 150.412 26.352C149.453 25.5543 149.173 24.9959 149.173 23.8791C149.173 22.164 149.453 21.6854 150.651 21.0473C151.69 20.5287 153.049 20.9276 154.168 22.2039C156.246 24.5173 158.044 24.5971 163.559 22.7623C167.236 21.5658 170.473 19.3721 172.351 16.8992C173.11 15.8621 173.829 15.0246 173.909 15.0246C173.989 15.0246 173.909 17.3379 173.75 20.1698ZM146.975 44.5797C150.292 46.8133 158.364 50.1238 160.562 50.1238C161.481 50.1238 163.919 51.7192 169.434 55.8274C171.991 57.7419 176.067 62.4085 177.386 64.9612C177.906 65.9982 178.785 68.3913 179.344 70.266C179.904 72.1805 180.423 73.8557 180.543 74.0551C180.663 74.2146 181.462 77.1263 182.381 80.4767C186.577 96.3112 190.174 106.043 193.93 111.547C196.288 115.017 201.803 124.391 203.561 127.94C205.08 131.012 205.16 131.211 204.52 131.929C203.361 133.165 196.888 136.316 196.048 135.997C192.931 134.841 183.9 125.946 180.103 120.242C178.265 117.53 175.947 111.906 175.947 110.231C175.947 109.075 176.667 108.357 177.826 108.357C179.344 108.357 183.101 106.761 183.74 105.844C184.819 104.288 184.499 102.174 182.941 100.499C182.182 99.6616 181.702 98.8639 181.902 98.6644C182.062 98.5049 182.102 97.7471 181.982 97.069C181.742 95.9522 181.422 95.673 179.344 94.9152C178.025 94.4366 176.107 94.0377 175.068 94.0377C173.19 93.9978 173.19 93.9978 172.711 92.3226C172.351 90.8868 172.431 89.8099 173.35 85.223C173.909 82.2316 174.349 78.8812 174.269 77.8043C174.149 76.1291 174.029 75.8499 173.27 75.7303C172.431 75.6106 172.111 76.1291 172.311 77.3656C172.431 78.1234 171.032 85.2629 170.313 87.6161C169.274 90.8469 168.435 92.2828 165.397 95.8326C164.039 97.3881 162.64 99.0633 162.24 99.5419C161.721 100.22 161.321 100.34 160.642 100.1C160.162 99.9408 158.244 99.7812 156.366 99.7812C153.689 99.7812 152.21 100.021 149.453 100.938C146.256 101.975 145.576 102.055 142.459 101.855C140.541 101.696 137.824 101.337 136.385 101.018C134.107 100.539 133.588 100.26 131.949 98.465C129.791 96.1118 128.712 94.0377 127.753 90.4081C127.074 87.8954 126.994 85.0236 127.314 74.8528C127.394 72.699 127.274 72.2602 126.714 72.1406C125.515 71.9013 125.156 73.5765 124.916 80.1576C124.636 87.7358 125.076 91.2457 126.834 95.4337C130.231 103.57 138.823 106.283 151.251 103.132C157.085 101.656 158.164 101.815 161.201 104.647C163.639 106.921 164.758 109.194 164.838 112.106C164.878 113.901 164.718 114.499 164.039 115.257C162.121 117.291 155.807 119.525 149.213 120.522C144.897 121.2 141.22 120.921 131.869 119.325C123.717 117.969 122.438 117.57 120.6 116.134C119.721 115.456 117.883 114.22 116.524 113.382C113.207 111.428 111.049 108.915 108.971 104.567C106.573 99.6616 105.894 96.6702 105.894 91.6047C105.894 86.7387 106.334 84.3057 108.452 78.1234C110.889 70.9041 115.445 63.1664 119.921 58.5795C121.599 56.8644 130.95 50.3232 134.107 48.648C135.266 48.0497 145.097 43.8618 145.576 43.782C145.696 43.782 146.336 44.1011 146.975 44.5797ZM171.472 93.2799C171.392 93.7984 171.032 94.2372 170.632 94.3169C170.033 94.4366 169.993 94.3169 170.393 93.4394C170.992 92.1631 171.671 92.0833 171.472 93.2799ZM178.665 96.9494L179.744 98.0263L176.946 97.7471C174.069 97.5078 171.831 97.8667 169.074 99.0633C166.277 100.26 167.715 101.297 170.632 100.18C173.07 99.2228 177.186 99.5419 178.705 100.738C179.264 101.217 180.064 101.696 180.463 101.855C182.221 102.414 180.783 102.773 176.827 102.693C173.27 102.613 172.271 102.733 171.432 103.291C169.713 104.408 170.153 104.767 172.95 104.488C174.908 104.328 175.987 104.408 177.346 104.966C178.385 105.325 179.104 105.724 178.985 105.844C178.865 105.963 177.466 106.083 175.868 106.123C173.07 106.243 170.033 107.24 169.354 108.357C169.234 108.556 168.794 108.915 168.355 109.154C167.715 109.473 167.396 109.194 166.077 106.921C165.238 105.485 164.239 103.69 163.799 102.892L163.04 101.496L165.198 99.3425C167.076 97.5078 167.755 97.1089 170.353 96.4308C174.389 95.3141 177.226 95.4736 178.665 96.9494ZM173.27 109.713C173.39 109.992 173.59 111.109 173.75 112.186C174.149 115.297 175.868 120.123 177.226 121.997C179.464 125.109 184.739 131.051 187.417 133.445C188.855 134.761 191.133 136.396 192.452 137.154C195.729 138.949 196.848 140.185 197.927 143.137C199.685 148.202 200.924 150.875 202.642 153.427L204.36 156.02L202.882 157.216C202.043 157.855 200.444 159.051 199.365 159.809C197.527 161.085 197.287 161.404 197.047 163.199C196.408 167.547 195.129 182.584 193.131 209.067C192.692 214.971 192.212 220.076 192.132 220.355C191.653 221.671 185.139 218.8 182.741 216.207C181.422 214.811 181.182 214.173 180.983 212.218C180.583 208.469 180.143 205.717 178.145 195.108C177.146 189.603 176.027 183.621 175.748 181.746C175.108 177.797 173.27 168.624 172.75 166.589C172.431 165.353 171.432 159.968 168.754 144.453C165.997 128.539 165.078 123.433 164.518 121.24L163.879 118.767L165.877 116.493C166.996 115.257 168.035 113.741 168.155 113.143C168.475 111.627 171.232 109.194 172.591 109.154C172.87 109.154 173.15 109.394 173.27 109.713ZM120.52 118.527C121.599 119.205 128.113 120.721 135.386 121.958C139.222 122.636 142.219 122.835 146.775 122.835C152.809 122.835 153.089 122.795 157.245 121.439C162.2 119.804 161.641 119.405 162.36 125.308C162.84 129.297 164.079 136.795 165.877 146.447C166.556 149.957 167.276 154.185 167.555 155.82C167.795 157.456 168.355 160.527 168.754 162.601C169.154 164.675 169.953 168.983 170.553 172.173C171.112 175.364 171.831 179.034 172.151 180.35C172.471 181.666 173.35 185.974 174.109 189.922C174.868 193.871 176.147 200.253 176.946 204.082C178.105 209.546 178.385 211.66 178.225 213.854C177.746 221.472 173.27 226.178 166.357 226.458C161.441 226.657 161.161 226.577 159.123 224.463C157.685 222.948 157.045 221.871 156.246 219.398C154.728 214.811 151.491 198.538 148.174 178.994C147.375 174.287 146.415 169.062 145.976 167.427C145.576 165.752 144.777 160.367 144.178 155.422C142.02 136.675 141.78 135.519 139.782 134.601C138.983 134.242 138.623 134.282 137.983 134.88C136.065 136.596 135.506 142.14 134.787 166.39C134.547 173.609 134.187 182.065 133.947 185.136C133.268 194.469 131.989 207.911 131.39 212.378C131.07 214.731 130.591 218.082 130.351 219.837C129.512 225.66 128.393 226.577 122.398 226.617C118.322 226.617 116.963 226.258 114.086 224.344C112.088 222.948 110.809 220.674 109.81 216.486C109.211 213.973 109.131 212.498 109.371 206.914C109.491 203.284 109.89 198.139 110.21 195.506C110.57 192.874 111.169 187.649 111.609 183.94C112.048 180.19 112.688 175.085 113.007 172.572C113.527 168.384 114.526 157.894 115.605 144.453C115.845 141.581 116.244 137.553 116.444 135.479C117.043 129.536 119.081 117.929 119.481 117.929C119.561 117.929 120.041 118.208 120.52 118.527ZM209.675 135.08C210.954 136.197 213.272 137.992 214.87 139.029C216.429 140.105 217.988 141.302 218.307 141.661C219.866 143.536 224.701 151.752 224.701 152.51C224.701 154.624 222.663 152.988 217.988 147.245C214.751 143.256 212.513 141.462 210.674 141.462C210.155 141.462 208.796 142.02 207.637 142.738C205.559 144.014 205.519 144.054 205.519 145.929C205.519 147.205 205.959 148.721 206.918 150.875C208.516 154.384 208.477 154.225 207.757 154.225C206.678 154.225 203.881 149.758 202.003 145.011C201.323 143.376 200.364 141.262 199.805 140.305L198.766 138.51L200.124 137.593C200.884 137.074 201.643 136.675 201.803 136.675C201.963 136.675 203.202 135.878 204.52 134.88C205.839 133.923 207.038 133.126 207.158 133.086C207.278 133.086 208.437 134.003 209.675 135.08ZM237.089 138.39C237.089 138.709 237.569 139.348 238.128 139.906C239.807 141.462 245.881 149.08 245.881 149.638C245.881 149.917 243.963 151.553 241.605 153.268C239.207 154.983 234.132 158.692 230.296 161.564C216.869 171.495 214.751 172.971 213.951 172.971C213.592 172.931 211.034 171.256 208.237 169.222L203.162 165.473L204.68 164.476C205.519 163.917 207.597 162.282 209.356 160.846C211.673 158.892 212.792 158.213 213.712 158.213C214.351 158.213 215.47 158.213 216.189 158.213C217.108 158.213 217.708 157.894 218.467 156.977C219.027 156.299 219.506 155.581 219.506 155.382C219.506 155.142 218.387 153.866 217.068 152.51C215.71 151.154 214.311 149.598 213.951 149.04C213.592 148.481 212.752 147.285 212.033 146.328C210.515 144.333 210.395 143.855 211.434 143.855C212.433 143.855 213.312 144.932 216.389 149.638C217.828 151.832 219.626 154.185 220.345 154.903C222.064 156.498 224.222 157.416 225.341 157.017C226.459 156.578 228.298 154.345 228.298 153.427C228.298 153.028 227.658 151.513 226.899 150.077C226.14 148.601 225.5 147.285 225.5 147.085C225.5 146.926 226.419 146.208 227.538 145.49C231.135 143.256 235.571 139.786 236.01 138.789C236.45 137.792 237.089 137.553 237.089 138.39ZM266.062 142.459C267.98 144.852 270.138 147.205 270.857 147.604C271.976 148.322 272.256 148.322 273.455 147.843C274.174 147.564 275.333 146.687 276.092 145.929C276.892 145.091 277.651 144.652 278.01 144.772C278.37 144.932 279.449 146.128 280.448 147.524C282.207 149.997 283.206 151.154 288.401 156.937C289.839 158.572 291.038 160.088 291.038 160.327C291.038 160.966 288.361 162.481 279.05 167.148C274.774 169.302 271.017 171.256 270.777 171.455C270.418 171.775 269.738 171.296 268.38 169.78C266.222 167.387 263.464 163.957 263.464 163.678C263.464 163.598 264.304 163.199 265.382 162.8C266.422 162.401 269.698 160.886 272.656 159.37C277.971 156.698 281.847 153.746 281.847 152.43C281.847 151.672 282.007 151.632 278.37 153.188C273.455 155.302 266.222 158.971 264.144 160.447C263.105 161.205 262.106 161.803 261.906 161.803C261.666 161.803 260.747 160.886 259.788 159.769C258.109 157.775 251.636 150.396 250.197 148.84C249.478 148.122 249.478 148.043 250.277 147.245C251.556 146.009 262.026 137.952 262.305 137.992C262.465 138.031 264.144 140.026 266.062 142.459ZM210.515 147.883C211.274 149.08 212.513 151.154 213.312 152.51C214.071 153.866 215.03 155.142 215.39 155.342C215.87 155.621 215.909 155.78 215.47 156.02C214.591 156.578 207.118 147.684 207.118 146.048C207.118 145.45 208.357 145.051 208.836 145.49C209.036 145.65 209.795 146.726 210.515 147.883ZM254.753 159.251C256.431 161.205 260.187 165.672 263.065 169.182C265.942 172.692 268.859 176.122 269.499 176.84C271.057 178.475 270.777 179.034 266.981 181.626C259.748 186.572 253.034 190.242 251.116 190.242C249.597 190.242 238.688 185.336 238.688 184.618C238.688 184.418 240.087 183.341 241.805 182.225C243.483 181.108 247.24 178.316 250.157 176.002C255.192 171.974 257.27 169.82 256.99 168.983C256.631 167.866 247.799 173.25 238.488 180.23C234.492 183.222 234.492 183.222 233.093 182.703C231.295 182.065 223.342 178.515 221.384 177.518L219.866 176.72L224.182 173.29C226.539 171.416 231.015 168.065 234.092 165.872C237.169 163.678 242.045 160.088 244.882 157.894L250.077 153.946L250.876 154.823C251.316 155.342 253.074 157.296 254.753 159.251ZM201.044 167.706C201.643 168.105 203.042 169.062 204.121 169.78C216.269 177.997 217.228 178.794 216.948 180.23C216.829 180.749 216.469 184.658 216.109 188.925C215.79 193.193 215.31 198.937 215.11 201.689C214.87 204.441 214.351 211.501 213.911 217.443C213.072 228.532 212.792 230.805 212.353 230.805C212.233 230.805 211.673 230.167 211.114 229.409C209.635 227.415 206.718 225.859 201.403 224.224C198.806 223.426 196.328 222.429 195.888 221.99C195.049 221.153 195.009 221.033 195.529 215.25C195.729 212.936 196.368 204.162 196.928 195.706C198.286 174.686 198.726 170.059 199.365 167.666C199.645 166.829 199.725 166.829 201.044 167.706ZM228.298 183.501C232.813 185.774 237.569 188.088 238.888 188.646C240.206 189.205 242.564 190.242 244.163 190.88C246.48 191.877 247.559 192.116 249.997 192.116C253.394 192.116 254.633 191.757 260.547 188.925C262.865 187.809 265.582 186.732 266.621 186.492C267.62 186.253 270.138 185.336 272.176 184.458C274.534 183.461 276.172 182.982 276.692 183.142C277.411 183.381 277.491 183.621 277.251 186.652C276.932 191.598 276.292 207.233 276.052 216.646C275.932 221.233 275.733 227.215 275.613 229.848L275.373 234.714L260.547 234.953C252.355 235.073 238.848 235.272 230.536 235.392L215.39 235.631L215.67 231.922C216.829 217.204 217.188 211.74 217.908 198.498C218.787 181.786 218.987 179.353 219.626 179.353C219.866 179.353 223.782 181.227 228.298 183.501Z" fill="black"/>
<path d="M19.6027 61.6484C5.57604 61.7282 0.90048 61.8479 0.460898 62.2467C-0.0586088 62.6456 -0.0985708 63.882 0.141201 70.7024C0.580784 84.782 1.53987 122.155 1.77965 135.915C1.89953 143.254 2.17927 155.459 2.37908 163.037C2.57889 170.616 2.93854 186.49 3.17832 198.336C3.77775 232.877 3.97756 238.939 4.49706 239.578C4.89668 240.056 7.69403 240.096 21.9605 239.857C48.4153 239.418 59.5248 238.979 60.1642 238.341C60.5638 237.902 60.5638 234.113 60.1242 217.481C58.5657 160.205 58.1661 145.129 57.5267 111.785C56.7674 74.4915 56.3678 62.486 55.8882 61.8479C55.4886 61.4091 53.8502 61.3293 46.7769 61.4091C42.0214 61.4889 29.793 61.5687 19.6027 61.6484ZM54.09 82.9473C54.5295 113.22 55.8483 177.955 56.8473 216.923C57.1271 226.934 57.2869 235.39 57.207 235.749C57.0871 236.347 56.168 236.427 48.4153 236.427C43.6998 236.427 32.7103 236.626 24.0385 236.865C10.931 237.224 8.17357 237.224 7.77395 236.746C7.33437 236.347 7.13456 231.8 6.81486 216.683C6.17547 188.205 5.616 168.222 5.17642 156.456C4.97661 150.753 4.69687 141.778 4.57699 136.514C4.4571 131.249 4.09744 119.562 3.77775 110.588C2.93854 87.4543 2.459 68.7082 2.65881 67.5515C2.7787 66.9931 3.05843 66.3948 3.33816 66.1954C3.57794 65.996 8.53323 65.5971 14.3677 65.3578C34.029 64.5202 43.6998 64.0815 48.5352 63.7624C51.1727 63.6427 53.4506 63.5231 53.5704 63.6028C53.6903 63.6427 53.9301 72.3776 54.09 82.9473Z" fill="black"/>
<path d="M18.7641 77.2835C13.609 77.4032 9.09329 77.6425 8.69367 77.802C7.25504 78.52 7.01527 80.1952 7.73458 85.0213C8.09424 87.4942 8.57378 90.0868 8.81356 90.7249C9.17322 91.8417 9.33306 91.9215 10.8916 91.8018C11.8107 91.7221 18.2446 91.2833 25.158 90.8047C32.0715 90.366 40.1038 89.7677 42.9411 89.5284L48.1362 89.0497L48.2561 87.4942C48.4559 84.9415 47.2171 77.9616 46.4578 77.3633C45.7385 76.8448 37.7061 76.8049 18.7641 77.2835ZM45.179 79.7165C45.4188 80.1952 45.6586 82.1097 45.6985 84.0242L45.7385 87.4543L43.6605 87.6936C42.5415 87.8532 35.708 88.1723 28.4749 88.4116C21.2817 88.6509 14.3683 88.9301 13.1295 89.0497L10.9315 89.2093L10.412 85.5398C10.1323 83.5056 9.85257 81.5911 9.77265 81.2721C9.2931 79.5969 9.81261 79.5171 21.8412 79.2778C45.219 78.7593 44.6595 78.7593 45.179 79.7165Z" fill="black"/>
<path d="M18.7642 105.881C10.1723 106.001 9.73273 106.041 9.09334 106.839C8.45395 107.597 8.37402 108.913 8.37402 121.118C8.37402 131.129 8.53387 134.759 8.89353 135.516L9.41304 136.514L19.5634 136.633C25.1581 136.713 34.3094 136.633 39.8641 136.514C49.8546 136.234 49.9745 136.194 50.5739 135.317C51.0934 134.479 51.1334 132.804 50.7338 121.277C50.2143 107.597 50.0544 106.36 48.3361 105.802C47.8965 105.682 43.101 105.602 37.6662 105.682C32.1914 105.762 23.7194 105.842 18.7642 105.881ZM34.6291 109.272C35.4283 109.91 37.1467 115.813 37.1467 117.807C37.1467 119.961 37.1067 119.961 43.5806 118.366C46.258 117.727 48.5758 117.289 48.7756 117.408C48.9755 117.528 49.1353 118.206 49.1353 118.924C49.1353 120.081 48.9755 120.28 47.6567 120.679C46.8175 120.958 44.22 121.477 41.9022 121.836L37.6662 122.514L38.2257 124.707C38.5054 125.944 38.7452 128.497 38.7452 130.411V133.921H25.198C11.8507 133.921 11.6109 133.921 11.3712 133.083C11.1314 132.326 10.3721 109.232 10.6119 108.793C10.8117 108.394 34.1495 108.873 34.6291 109.272Z" fill="black"/>
</svg>
