<svg width="319" height="240" viewBox="0 0 319 240" fill="none" xmlns="http://www.w3.org/2000/svg">
<path d="M98.2199 85.9831C98.1125 86.0123 97.9368 86.0512 97.8197 86.0707C97.3999 86.1584 97.3902 86.3239 97.4585 92.0298C97.5268 98.7095 97.5464 106.499 97.5073 123.101C97.4878 134.873 97.4976 135.905 97.644 136.197C97.8294 136.538 98.1418 136.85 98.3078 136.85C98.3663 136.84 110.802 136.869 125.952 136.898C150.727 136.957 153.519 136.947 153.851 136.811C154.573 136.509 154.514 138.729 154.534 111.582C154.534 98.1934 154.505 87.1418 154.466 87.0152C154.397 86.8399 154.427 86.7815 154.612 86.7036C154.807 86.6257 154.788 86.616 154.446 86.6257C154.231 86.6257 149.663 86.5868 144.294 86.5186C138.925 86.4602 130.228 86.3726 124.966 86.3141C109.065 86.1486 101.568 86.0512 99.5377 85.9831C98.9227 85.9539 98.3273 85.9636 98.2199 85.9831ZM114.863 87.5313C114.893 87.5508 123.551 87.5897 134.093 87.6287C144.646 87.6676 153.333 87.7163 153.411 87.7358C153.529 87.7747 153.538 91.2898 153.48 111.806L153.411 135.827L149.438 135.847C147.252 135.856 141.005 135.818 135.558 135.74C130.111 135.671 121.852 135.603 117.206 135.584C112.56 135.574 106.478 135.535 103.686 135.496L98.6104 135.438L98.5518 135.146C98.4444 134.591 98.6006 90.1116 98.7275 88.32L98.7861 87.356L106.8 87.4242C111.203 87.4631 114.824 87.5118 114.863 87.5313Z" fill="black"/>
<path d="M118.709 94.3181C118.563 94.6004 118.553 94.9899 118.602 98.1739C118.651 101.241 118.68 101.757 118.827 101.971L118.983 102.215L117.684 102.147C114.61 102.01 112.96 101.981 112.823 102.079C112.618 102.215 112.53 103.198 112.521 105.399C112.521 106.441 112.491 108.125 112.452 109.128L112.394 110.968L111.652 110.93C110.92 110.9 110.92 110.9 110.773 111.192C110.666 111.416 110.627 111.894 110.627 113.14C110.617 115.058 110.676 115.263 111.32 115.36C111.974 115.477 117.928 115.438 118.26 115.321C118.651 115.185 118.68 115.029 118.661 113.081C118.622 109.041 118.709 107.414 118.963 107.366C119.09 107.346 119.11 107.619 119.119 109.362C119.119 111.056 119.149 111.446 119.285 111.767C119.432 112.108 119.451 112.487 119.442 114.659L119.432 117.171L117.323 117.122C115.937 117.083 115.156 117.103 115.059 117.171C114.932 117.259 114.902 117.677 114.883 119.683C114.844 122.264 114.902 122.731 115.283 122.945C115.43 123.033 116.171 123.081 117.675 123.101L119.852 123.14L119.803 123.929C119.676 125.847 119.656 127.424 119.744 128.281C119.861 129.527 119.939 129.596 121.365 129.683C124.264 129.868 125.708 129.946 127.329 130.005L129.105 130.063L129.213 129.781C129.33 129.469 129.496 127.025 129.506 125.496C129.506 124.795 129.545 124.493 129.633 124.454C129.691 124.435 130.326 124.445 131.019 124.493C133.928 124.678 135.646 124.571 135.851 124.191C135.909 124.084 135.948 122.828 135.948 121.095C135.948 118.447 135.929 118.174 135.782 118.038C135.636 117.911 135.109 117.872 132.815 117.804C130.648 117.736 129.984 117.687 129.857 117.58C129.701 117.453 129.691 117.229 129.75 115C129.789 113.374 129.857 112.39 129.955 112.049C130.052 111.699 130.091 110.978 130.091 109.615C130.091 108.554 130.13 107.629 130.169 107.56C130.267 107.414 130.823 107.502 130.862 107.668C130.96 108.096 130.97 111.28 130.872 112.166C130.784 112.984 130.794 113.529 130.882 114.493C131.038 116.149 131.077 116.188 132.336 116.324C133.361 116.431 136.788 116.363 137.832 116.207C138.193 116.149 138.672 116.022 138.896 115.905L139.296 115.701L139.238 113.646C139.199 112.517 139.13 111.553 139.091 111.514C139.043 111.465 138.525 111.407 137.93 111.368L136.846 111.309L136.797 110.813C136.758 110.54 136.71 108.602 136.671 106.519C136.632 104.425 136.573 102.653 136.524 102.565C136.397 102.322 136.036 102.293 132.844 102.273L129.877 102.254L129.935 101.952C129.974 101.786 129.974 100.014 129.935 98.0084C129.867 94.6491 129.847 94.3473 129.681 94.1817C129.515 94.0162 129.223 94.0065 124.186 94.0065H118.875L118.709 94.3181ZM122.624 98.3882V99.2158H121.55H120.476L120.447 98.3687C120.418 97.3852 120.33 97.4437 121.687 97.5118L122.624 97.5605V98.3882ZM127.895 97.7358C127.934 97.8624 127.944 98.2226 127.924 98.5342L127.895 99.1184L126.85 99.1476L125.796 99.1769V98.4076C125.796 97.9889 125.826 97.6092 125.865 97.58C125.894 97.541 126.353 97.5118 126.88 97.5118C127.797 97.5118 127.846 97.5216 127.895 97.7358ZM129.447 104.153C129.535 106.82 129.554 111.377 129.476 111.504C129.418 111.601 128.364 111.631 124.742 111.631C122.185 111.631 119.988 111.601 119.871 111.572L119.647 111.514V107.044V102.575L123.971 102.546C126.343 102.536 128.529 102.517 128.832 102.497L129.379 102.478L129.447 104.153ZM117.577 102.731L119.061 102.799V104.464C119.061 105.379 119.032 106.217 119.002 106.334C118.963 106.47 118.827 106.558 118.553 106.626L118.163 106.713L118.114 108.748C118.094 109.868 118.055 110.822 118.026 110.871C117.997 110.91 116.855 110.949 115.488 110.949H113.009V106.976C113.009 104.795 113.038 102.906 113.077 102.78L113.136 102.546L114.61 102.604C115.42 102.643 116.757 102.702 117.577 102.731ZM136.163 107.074C136.182 109.868 136.153 111.416 136.095 111.455C136.046 111.494 134.992 111.533 133.762 111.533H131.526L131.585 109.401C131.663 106.937 131.663 106.957 130.745 106.859L130.238 106.811L130.179 106.275C130.14 105.983 130.091 105.097 130.072 104.308L130.023 102.867L132.473 102.838C133.82 102.828 135.197 102.809 135.528 102.789L136.134 102.77L136.163 107.074ZM115.966 111.533H118.28V113.296V115.068L116.796 115.009C115.976 114.97 114.531 114.922 113.594 114.893C112.657 114.863 111.74 114.815 111.554 114.785L111.232 114.737L111.291 113.89C111.457 111.553 111.457 111.543 111.623 111.494C111.72 111.465 112.208 111.465 112.716 111.485C113.223 111.514 114.688 111.533 115.966 111.533ZM138.642 112.526C138.633 112.916 138.672 113.744 138.72 114.367L138.808 115.496L138.525 115.555C137.598 115.759 131.995 115.74 131.663 115.535C131.595 115.486 131.536 114.893 131.487 113.802L131.429 112.137L132.834 112.079C133.605 112.049 134.962 111.981 135.851 111.932C136.739 111.894 137.725 111.845 138.057 111.845L138.652 111.825L138.642 112.526ZM124.918 117.823C125.015 117.921 124.967 122.624 124.869 122.711C124.81 122.78 124.147 122.78 123.063 122.721C122.126 122.663 120.086 122.595 118.524 122.556C116.972 122.517 115.635 122.449 115.576 122.41C115.42 122.312 115.39 117.804 115.547 117.746C115.713 117.697 124.859 117.775 124.918 117.823Z" fill="black"/>
<path d="M310.591 2.91475C308.475 4.56017 304.345 7.64952 301.423 9.73148C293.566 15.3729 288.831 18.7981 283.391 22.6933C276.104 27.999 275.432 28.4691 271.974 31.0547C265.661 35.7224 260.489 39.2818 258.945 39.987C257.4 40.6586 256.728 40.6922 233.357 40.9272C208.474 41.1959 170.059 41.7667 157.466 42.069C145.243 42.3712 106.055 43.0764 80.5345 43.4457L66.263 43.6808L63.0729 40.9944C60.0843 38.4759 53.0325 33.1703 44.8054 27.2938C42.7906 25.8499 39.0632 23.1299 36.5783 21.2494C34.0934 19.3689 29.6944 16.0781 26.8401 13.9626C23.9858 11.847 18.9824 8.15323 15.7588 5.76904C8.37117 0.261932 8.37117 0.261932 7.53168 0.261932C6.69218 0.261932 5.24824 1.50439 5.44972 2.04167C5.51688 2.24315 6.45712 2.94833 7.56526 3.61993C8.67339 4.29153 12.8037 7.24657 16.7662 10.2016C27.3774 18.0929 32.1794 21.6188 37.2499 25.0775C39.7348 26.7901 43.5294 29.4765 45.6449 31.0212C47.7604 32.5994 50.7826 34.7485 52.3609 35.8231C57.4315 39.2482 61.8976 42.3376 63.2408 43.3786L64.5504 44.386L64.3154 49.4565C63.9796 57.1799 64.7519 198.316 65.1213 199.794L65.4571 201.003L68.7479 201.238C70.5276 201.339 73.6842 201.574 75.699 201.775C77.7473 201.943 81.1053 202.145 83.1873 202.178L86.9482 202.245V204.797V207.349L85.5379 207.987C84.732 208.323 81.5419 210.338 78.3854 212.454C72.4417 216.45 65.7257 220.647 57.3979 225.483C47.0553 231.527 41.7496 234.784 41.1788 235.422C40.7422 235.926 40.6415 236.396 40.8094 237.135C40.9101 237.706 41.1116 238.277 41.2459 238.377C41.8168 238.948 123.315 239.62 205.183 239.754C280.033 239.855 274.996 239.989 274.996 237.974C274.996 236.9 274.694 236.665 269.388 233.676C267.675 232.702 266.265 231.728 266.265 231.493C266.265 230.755 268.918 224.475 269.522 223.837C269.992 223.3 270.664 223.233 275.903 223.233C281.477 223.233 281.779 223.266 281.947 223.904C282.081 224.442 282.417 224.576 283.424 224.576C284.499 224.576 284.801 224.408 285.204 223.636L285.708 222.662L291.181 222.46C294.741 222.36 296.789 222.393 297.092 222.628C297.629 223.098 302.968 231.158 303.572 232.467C303.942 233.273 304.278 233.508 305.251 233.575C307.367 233.743 307.468 233.139 305.957 229.21C303.505 222.863 303.405 222.091 305.084 221.554C306.863 220.949 308.71 218.935 309.55 216.685C310.759 213.495 311.564 206.98 311.934 197.712C312.975 171.889 312.975 171.419 311.867 169.337C311.564 168.766 311.094 167.826 310.792 167.221C310.188 165.912 308.878 165.307 303.673 163.863C298.132 162.319 296.252 161.949 293.297 161.983C291.114 161.983 290.241 162.151 288.596 162.923C285.036 164.535 283.794 166.147 282.283 171.083L281.443 173.87H282.216C285.003 173.87 296.319 172.426 300.785 171.486C304.076 170.814 307.77 169.337 308.542 168.397C309.113 167.692 310.221 167.658 310.49 168.363C310.96 169.572 308.106 171.352 303.875 172.527C299.845 173.635 283.626 175.751 274.156 176.389C269.925 176.691 265.829 177.06 265.09 177.262C262.806 177.9 260.892 179.243 259.717 181.056C258.34 183.239 258.038 184.246 257.333 189.149C256.527 194.824 256.594 200.432 257.501 204.562C258.206 207.92 258.172 208.458 257.031 208.458C256.124 208.458 255.721 207.786 255.822 206.275C255.855 205.435 255.553 203.219 255.184 201.372C254.479 198.081 254.479 197.88 255.016 193.75C255.889 186.597 256.896 181.963 257.971 179.747C259.851 175.851 261.967 175.113 272.645 174.508C276.07 174.34 279.193 174.105 279.596 174.038C280.167 173.904 280.503 173.266 281.242 170.982C282.182 168.162 282.182 168.061 281.544 167.624C280.704 167.02 279.932 167.02 274.425 167.826C263.915 169.303 259.482 169.807 259.079 169.572C258.878 169.471 258.844 144.152 258.978 106.106L259.18 42.8077L260.053 41.9011C260.523 41.3974 262.605 39.8191 264.687 38.4088C285.506 24.003 292.558 19.0667 296.151 16.4475C311.329 5.19818 315.728 2.10883 317.273 1.40366C318.784 0.76564 318.28 0.228363 316.064 0.0268707C314.486 -0.0738678 314.385 -0.0402832 310.591 2.91475ZM256.493 43.4457C256.896 43.8151 256.997 51.2363 257.064 92.506C257.131 119.236 257.266 147.544 257.333 155.401L257.501 169.706L254.479 170.109C250.718 170.613 249.609 171.083 247.628 172.896C244.606 175.684 244.17 177.463 243.934 188.075C243.834 192.373 243.666 197.108 243.565 198.652L243.364 201.406H240.576C237.991 201.406 237.756 201.339 237.554 200.667C236.816 198.35 237.756 116.885 238.528 116.348C238.73 116.213 241.617 116.113 244.908 116.146C250.516 116.18 250.953 116.146 251.188 115.575C251.322 115.206 251.456 111.076 251.456 106.341C251.49 99.9944 251.389 97.6102 251.087 97.2072C250.684 96.67 249.542 96.6364 237.218 96.7035L223.786 96.8043L223.686 106.442L223.619 116.113H229.596H235.607L235.842 157.651C235.976 180.519 236.01 199.626 235.875 200.13C235.674 200.936 235.439 201.036 233.928 201.238C232.954 201.339 231.577 201.339 230.838 201.271C230.1 201.171 229.159 201.104 228.756 201.104C228.152 201.07 227.984 200.869 227.984 200.163C227.984 198.887 230.066 188.88 231.678 182.332C232.417 179.31 233.021 176.288 233.021 175.616C233.021 172.997 228.857 170.277 221.1 167.759C216.903 166.415 216.835 166.382 217.037 165.509C217.507 163.528 217.641 160.203 217.272 159.498C216.701 158.457 214.048 157.013 211.731 156.476C210.455 156.207 206.728 155.972 201.96 155.871L194.236 155.703L191.886 154.528C190.61 153.89 188.964 153.286 188.292 153.151C187.151 152.984 186.916 153.084 185.774 154.26L184.498 155.569L155.485 155.67L126.472 155.804L125.263 154.629C122.711 152.211 121.468 152.11 118.312 154.226L116.062 155.737H110.958C104.746 155.737 104.108 155.838 102.429 157.282C101.723 157.92 100.783 158.423 100.38 158.423C97.0222 158.423 95.7462 162.621 97.4923 168.027C97.6938 168.665 97.5595 168.766 96.2835 168.934C94.1679 169.203 89.6011 171.654 87.4184 173.635C83.4559 177.228 83.1537 179.747 85.2357 190.459C85.9744 194.186 86.6796 197.947 86.8139 198.854L87.049 200.499L85.9073 200.264C84.9334 200.096 72.1731 199.492 67.6062 199.425C66.2294 199.391 66.1958 199.357 65.9944 197.947C65.86 197.175 65.9608 192.071 66.1623 186.631C66.3973 180.519 66.5652 151.741 66.6324 111.546C66.666 75.6825 66.8339 46.1657 66.9682 45.9306C67.1697 45.6284 69.218 45.5949 75.8333 45.7628C86.9818 46.065 137.788 45.3262 202.127 43.9159C236.312 43.1435 248.401 42.8749 249.979 42.7741C252.699 42.6062 255.99 42.942 256.493 43.4457ZM241.013 98.8862C245.613 99.0205 247.998 99.222 248.401 99.5242C248.871 99.86 249.005 100.767 249.173 105.266C249.307 108.188 249.341 111.412 249.24 112.419C249.072 114.232 249.039 114.266 247.998 114.299C245.647 114.367 226.775 113.729 226.171 113.561C225.566 113.359 225.533 113.057 225.734 107.483C225.902 102.647 226.036 101.438 226.574 100.565C227.749 98.5168 228.219 98.4497 241.013 98.8862ZM115.155 158.323C115.155 158.457 114.652 159.364 114.081 160.371C113.04 162.017 112.906 162.151 111.965 161.983C110.622 161.714 104.007 159.028 104.208 158.826C104.846 158.222 115.155 157.752 115.155 158.323ZM184.767 159.33C184.867 160.035 185.136 162.084 185.371 163.863L185.774 167.121L183.927 169.941C181.207 174.005 180.3 175.952 180.3 177.665C180.3 179.243 180.804 179.948 182.315 180.553C182.953 180.788 182.416 180.888 179.931 180.888C178.151 180.922 175.331 181.023 173.652 181.124L170.562 181.359V180.553C170.529 178.706 169.454 178.437 169.118 180.183C168.917 181.157 168.883 181.157 166.13 181.325C162.402 181.56 158.675 182.87 157.231 184.414C156.324 185.388 156.156 185.455 156.022 184.952C155.821 184.213 153.705 183.071 151.657 182.601C147.258 181.627 139.434 180.922 132.953 180.922C131.945 180.922 131.912 180.888 132.415 180.183C133.591 178.504 132.953 176.019 130.166 171.62C127.211 166.919 126.808 165.845 126.64 161.781L126.505 158.256L155.518 158.155L184.565 158.054L184.767 159.33ZM209.784 158.625C210.355 158.759 210.858 158.961 210.858 159.095C210.858 159.733 203.806 162.117 201.892 162.117C200.381 162.117 199.139 161.446 197.762 159.901C196.755 158.726 196.721 158.625 197.292 158.356C197.964 158.088 207.903 158.323 209.784 158.625ZM218.682 169.203C223.148 170.479 225.298 171.251 225.298 171.452C225.298 171.587 224.257 172.359 223.014 173.199C220.059 175.18 218.111 176.96 216.365 179.31C215.022 181.124 214.619 182.332 214.048 185.791L213.813 187.134L213.343 186.194C213.074 185.69 212.638 185.287 212.369 185.287C210.388 185.287 210.59 177.195 212.672 172.796C213.578 170.882 215.392 168.497 215.962 168.497C216.13 168.497 217.373 168.8 218.682 169.203ZM100.649 172.258C101.421 173.434 102.429 175.247 102.932 176.355L103.839 178.336L103.235 181.627C102.932 183.441 102.764 185.086 102.899 185.287C103.167 185.724 101.421 187.705 100.985 187.437C100.85 187.336 100.716 186.597 100.716 185.791C100.716 183.541 99.2049 180.15 97.2909 178.068C95.3432 175.919 93.8657 174.945 91.7166 174.408L90.1719 174.005L91.7837 172.896C93.7985 171.486 96.8879 170.21 98.2311 170.176C99.1713 170.176 99.44 170.412 100.649 172.258ZM228.958 173.568C231.107 174.307 231.141 175.583 229.327 182.803C226.842 192.507 226.104 197.41 225.667 206.342C225.533 209.364 225.298 211.916 225.163 212.051C225.029 212.219 223.249 212.386 221.201 212.42L217.473 212.554L217.742 204.361C218.111 194.455 218.044 192.373 217.339 189.989C216.533 187.269 216.634 183.541 217.574 181.09C218.615 178.404 221.033 175.885 224.055 174.374C226.574 173.098 227.279 172.997 228.958 173.568ZM93.1941 176.187C95.8805 177.396 98.0632 180.989 98.7012 185.287C98.8691 186.295 98.9699 192.709 98.9363 199.492C98.8691 210.069 98.802 211.883 98.3654 212.151C97.6267 212.621 91.3136 212.554 90.3062 212.051C89.2988 211.547 89.1645 210.54 88.6608 199.391C88.4258 193.951 88.1235 191.063 87.4519 187.638C86.2095 181.526 86.5117 178.437 88.5601 176.12C89.2317 175.348 91.4144 175.381 93.1941 176.187ZM140.676 183.273C149.138 183.877 154.78 184.952 154.78 185.925C154.78 186.127 154.41 186.597 153.974 187.034C153.537 187.47 152.799 188.914 152.328 190.257C151.858 191.634 151.355 192.876 151.153 193.078C150.918 193.313 118.547 193.548 104.343 193.38C101.32 193.313 101.186 191.768 103.94 188.679C105.686 186.731 108.036 185.758 113.644 184.649C122.006 183.004 130.636 182.567 140.676 183.273ZM169.018 183.978C169.118 184.549 169.219 185.69 169.219 186.496C169.219 187.672 169.085 187.974 168.514 188.142C167.943 188.343 167.876 188.444 168.245 188.679C168.648 188.948 168.648 189.015 168.245 189.283C168.01 189.451 167.54 189.485 167.204 189.418C166.835 189.317 165.861 189.485 164.954 189.787C164.081 190.056 162.772 190.392 162.1 190.526C160.925 190.727 160.824 190.66 160.388 189.552C160.119 188.914 159.481 188.007 158.977 187.537L158.037 186.698L158.776 185.522C159.817 183.81 162.167 183.038 166.566 182.97L168.816 182.937L169.018 183.978ZM196.083 183.776C201.724 184.347 205.62 185.019 208.642 185.959C211.261 186.799 213.477 188.78 214.384 191.097C215.492 193.985 216.432 193.817 200.18 193.582C184.263 193.313 182.315 193.212 182.315 192.373C182.282 191.13 182.013 190.996 175.834 189.619C173.954 189.216 173.047 188.645 173.853 188.377C174.088 188.31 174.256 187.974 174.256 187.604C174.256 187.034 173.719 186.799 172.846 186.933C172.409 187 172.544 186.396 173.081 185.959C173.652 185.489 173.752 184.616 173.282 184.616C173.114 184.616 172.51 185.019 171.939 185.489L170.898 186.362V184.851C170.898 183.541 170.999 183.306 171.67 183.138C173.148 182.803 191.315 183.273 196.083 183.776ZM158.675 192.742C158.944 194.085 159.078 195.697 158.977 196.268L158.776 197.376H156.627C155.451 197.376 154.377 197.208 154.242 197.007C153.94 196.503 153.907 192.809 154.242 190.862C154.444 189.653 154.78 188.981 155.518 188.276L156.559 187.336L157.365 188.813C157.802 189.619 158.373 191.399 158.675 192.742ZM254.546 193.179C253.874 200.264 253.908 200.13 253.068 199.861C251.423 199.357 247.192 197.04 246.184 196.1C245.278 195.227 245.11 194.925 245.311 194.119C246.05 191.03 249.24 188.511 253.001 188.007C255.083 187.739 255.049 187.705 254.546 193.179ZM179.058 191.197L180.334 191.433L179.159 192.205C178.521 192.641 176.842 193.548 175.431 194.186C173.349 195.126 172.745 195.261 172.006 194.992C171.536 194.824 169.152 194.287 166.734 193.85C160.69 192.675 160.824 192.709 160.824 192.138C160.824 191.231 161.865 191.231 165.995 192.171L170.059 193.078L172.577 192.44C174.155 192.071 175.062 191.668 175.028 191.399C174.928 190.962 176.875 190.862 179.058 191.197ZM181.14 194.421C180.838 195.395 180.3 195.832 177.547 197.242C176.338 197.846 175.096 198.686 174.793 199.089L174.29 199.828L172.04 199.089C170.159 198.484 164.316 197.746 160.925 197.712C160.085 197.712 159.951 197.074 160.354 195.093L160.555 194.085L161.966 194.522C164.585 195.328 168.044 196.302 170.226 196.872L172.409 197.443L175.935 195.764C181.207 193.313 181.476 193.246 181.14 194.421ZM184.229 194.891C184.129 194.992 183.826 195.026 183.591 194.925C183.323 194.824 183.423 194.723 183.793 194.723C184.162 194.69 184.364 194.791 184.229 194.891ZM128.419 196.167C127.311 196.57 125.565 197.443 124.524 198.115C122.577 199.357 122.207 200.063 122.207 202.447C122.207 203.824 124.054 204.932 128.017 205.939C130.972 206.678 138.057 207.652 142.187 207.853L143.866 207.954V210.304V212.655H123.718C112.637 212.621 102.999 212.521 102.328 212.386C100.649 212.051 100.548 211.614 100.548 204.26C100.548 198.787 100.615 198.115 101.22 197.04C102.126 195.529 101.925 195.529 117.842 195.462L130.434 195.395L128.419 196.167ZM152.295 196.973C152.664 199.895 152.093 199.727 163.578 200.23C169.152 200.466 174.424 200.566 175.263 200.432C176.103 200.298 177.816 199.592 179.058 198.887C181.308 197.645 181.409 197.611 183.927 197.813C188.091 198.149 191.718 199.66 191.718 201.07C191.718 204.999 157.936 207.417 138.527 204.898C130.837 203.924 125.061 202.514 124.088 201.439C123.517 200.801 123.55 200.768 124.961 199.962C126.673 198.954 131.744 197.309 135.471 196.537C138.594 195.899 143.363 195.462 148.467 195.395L152.06 195.361L152.295 196.973ZM212.638 196.47C213.511 196.671 214.384 197.007 214.552 197.208C215.123 197.913 215.559 202.145 215.559 207.316V212.386L214.518 212.621C213.948 212.722 204.344 212.823 193.195 212.823H172.913V210.506V208.155L174.861 207.954C184.935 206.812 188.192 206.174 190.845 204.932C193.094 203.857 193.9 202.648 193.632 200.633C193.43 199.089 192.49 198.014 190.207 196.637L188.528 195.664L199.777 195.865C206.291 195.999 211.698 196.234 212.638 196.47ZM234.633 202.95C235.271 203.085 235.405 203.286 235.304 204.159C235.204 205.133 235.036 205.267 233.659 205.637C232.786 205.838 231.476 206.376 230.704 206.779C229.629 207.417 229.327 207.786 229.327 208.458C229.327 209.566 230.032 210.237 232.181 211.178C233.558 211.782 234.666 211.95 238.629 212.084L243.364 212.252L244.17 211.379L244.975 210.506L247.393 212.823C248.736 214.099 249.811 215.274 249.811 215.375C249.811 216.315 248.3 220.983 247.83 221.52C247.158 222.293 247.057 222.225 243.767 220.143C242.759 219.505 239.804 217.793 237.218 216.349C234.633 214.939 231.678 213.26 230.67 212.655C229.663 212.051 228.521 211.513 228.152 211.446C227.615 211.345 227.447 211.01 227.38 209.633C227.279 208.088 227.85 203.253 228.219 202.648C228.353 202.413 233.021 202.615 234.633 202.95ZM243.431 204.73V206.342L240.912 205.906C239.502 205.67 238.226 205.368 238.058 205.267C237.689 205.032 237.588 203.656 237.957 203.32C238.058 203.186 239.368 203.085 240.812 203.085H243.431V204.73ZM166.163 209.398C166.365 210.103 166.633 211.144 166.734 211.748L166.969 212.823H157.466C150.011 212.823 148.03 212.722 148.164 212.386C148.232 212.185 148.567 211.11 148.87 210.069L149.407 208.155L157.634 208.122L165.828 208.088L166.163 209.398ZM87.6198 210.909C87.6198 212.957 88.2914 213.73 90.407 214.133C92.086 214.435 116.096 214.838 134.397 214.838C144.135 214.838 144.034 214.804 143.564 216.685C143.43 217.256 143.027 217.591 142.087 217.826C136.311 219.405 134.128 220.076 132.013 220.949C127.446 222.83 127.614 224.643 132.483 226.356C138.023 228.303 147.157 229.277 160.421 229.277C172.107 229.277 180.737 228.203 184.901 226.289C188.729 224.475 188.561 222.628 184.397 220.513C182.013 219.304 178.521 218.397 174.659 217.994C173.517 217.86 172.476 217.625 172.376 217.457C172.275 217.323 172.275 216.752 172.409 216.215L172.611 215.274L198.669 215.073C224.022 214.871 224.727 214.838 225.868 214.166C226.506 213.797 227.178 213.495 227.38 213.495C227.816 213.495 239.737 219.942 244.774 222.897C246.889 224.139 251.221 226.624 254.411 228.37C257.568 230.15 261.161 232.266 262.37 233.105C264.25 234.381 264.754 234.583 265.761 234.415C266.735 234.247 267.239 234.448 268.851 235.523C269.925 236.228 270.899 236.9 271.067 237.001C271.201 237.135 270.362 237.101 269.22 236.967C268.045 236.833 236.95 236.631 200.113 236.53C106.055 236.262 60.185 236.027 53.4355 235.792C48.2977 235.59 47.6933 235.523 48.0627 235.086C48.2977 234.784 51.555 232.534 55.3159 230.049C59.0433 227.565 64.7183 223.736 67.9084 221.52C71.0649 219.27 75.0609 216.618 76.7064 215.577C80.4673 213.26 87.0154 209.499 87.3848 209.465C87.5191 209.465 87.6198 210.103 87.6198 210.909ZM168.145 215.341C168.346 215.409 168.548 215.879 168.548 216.349V217.188H157.802H147.056L147.258 216.248C147.392 215.744 147.526 215.274 147.56 215.174C147.694 214.972 167.507 215.14 168.145 215.341ZM255.587 219.069C256.561 219.707 258.273 220.781 259.415 221.419C262.571 223.166 262.672 223.367 262.504 226.759C262.437 228.303 262.269 229.714 262.135 229.814C261.799 230.184 253.438 225.785 250.583 223.77L249.845 223.233L251.691 220.546C252.732 219.069 253.605 217.86 253.706 217.86C253.773 217.86 254.646 218.397 255.587 219.069ZM166.029 219.774L168.715 220.043L169.085 223.569C169.32 225.516 169.454 227.128 169.421 227.162C169.051 227.565 159.615 227.968 155.283 227.8C150.918 227.632 144.437 227.061 144.135 226.792C144.001 226.658 146.049 220.446 146.351 220.076C146.721 219.64 161.899 219.405 166.029 219.774ZM142.892 222.964C142.758 224.509 142.523 225.886 142.389 226.02C141.885 226.524 132.852 224.005 133.053 223.434C133.322 222.561 139.937 220.278 142.322 220.244C143.127 220.211 143.127 220.211 142.892 222.964ZM178.521 221.084C179.83 221.352 181.812 221.957 182.853 222.46L184.767 223.333L183.894 223.804C182.92 224.307 177.144 225.718 174.155 226.188L172.241 226.49V223.569C172.241 221.957 172.342 220.546 172.476 220.412C172.779 220.143 174.995 220.378 178.521 221.084Z" fill="black"/>
<path d="M305.721 61.8475C304.076 62.452 301.725 63.3586 300.516 63.8287C295.144 65.9107 287.991 68.5971 285.103 69.6381C283.357 70.2425 281.846 70.8805 281.712 71.0148C281.577 71.1492 281.409 88.51 281.342 109.565L281.208 147.846L283.559 148.249C291.752 149.659 305.453 151.54 307.568 151.54H310.087L310.288 146.838C310.389 144.253 310.557 123.836 310.624 101.505L310.758 60.8737L309.751 60.8065C309.214 60.773 307.4 61.2431 305.721 61.8475ZM308.408 68.7986C308.542 71.4178 308.542 76.6227 308.408 80.3837C308.206 86.5288 308.106 87.234 307.602 87.234C307.098 87.234 299.073 89.1816 297.058 89.786C296.453 89.9875 296.42 89.551 296.554 79.3763C296.655 67.5561 296.52 68.2277 299.173 67.3211C300.013 67.0524 302.263 66.2129 304.21 65.4406C306.158 64.7018 307.837 64.0638 307.938 64.0638C308.072 64.0638 308.273 66.1793 308.408 68.7986ZM294.506 79.0069C294.439 84.3461 294.271 89.1144 294.136 89.5846C293.935 90.3569 293.599 90.4912 288.73 91.465C285.876 92.0695 283.424 92.4053 283.256 92.271C283.122 92.1031 283.122 88.0399 283.29 83.1372C283.693 72.2573 283.424 72.8617 288.26 71.1156C289.368 70.7126 290.879 70.0746 291.618 69.7388C292.357 69.403 293.33 69.168 293.8 69.2015L294.64 69.2687L294.506 79.0069ZM308.408 90.6591C308.509 91.0957 308.576 96.905 308.509 103.621C308.408 117.322 308.609 116.449 305.688 116.449C304.748 116.449 303.169 116.583 302.162 116.751C301.154 116.919 299.509 117.154 298.468 117.288L296.554 117.489L296.42 115.71C296.218 113.057 296.688 92.271 296.957 92.0359C297.125 91.8344 306.158 90.1218 307.803 89.9539C308.038 89.9539 308.307 90.2562 308.408 90.6591ZM294.472 105.199V117.792L290.04 117.859C284.264 117.96 283.424 117.926 283.122 117.657C282.887 117.422 282.921 114.635 283.256 102.412C283.458 95.4946 283.525 94.9238 284.129 94.588C284.7 94.2858 292.357 92.7747 293.901 92.6403C294.439 92.6068 294.472 93.4127 294.472 105.199ZM308.609 125.179C308.911 133.44 308.71 146.637 308.273 147.745C307.971 148.517 307.77 148.652 306.997 148.517C306.494 148.45 303.908 148.114 301.289 147.812C297.696 147.376 296.453 147.107 296.319 146.738C296.05 146.066 296.151 128.537 296.453 123.5L296.655 119.639L299.845 119.437C301.591 119.336 304.244 119.269 305.721 119.269L308.408 119.303L308.609 125.179ZM294.472 133.238V146.67H292.927C292.088 146.67 290.778 146.536 290.006 146.335C289.234 146.167 287.521 145.865 286.178 145.663C282.283 145.059 282.585 146.234 283.021 132.701C283.256 125.952 283.592 120.814 283.794 120.579C284.163 120.109 285.775 119.941 290.879 119.874L294.472 119.807V133.238Z" fill="black"/>
<path d="M8.16934 122.997C7.2291 124.441 4.47554 131.291 3.50173 134.582C2.96445 136.395 2.49433 138.981 2.39359 140.525L2.22569 143.312H9.31106H16.3964L16.6315 145.227C17.2359 150.196 15.8256 157.382 12.3333 166.583C9.31106 174.676 8.87452 178.437 10.5199 182.332C11.158 183.843 11.6617 183.743 5.24788 183.608C2.25927 183.575 0.815331 183.676 0.479531 183.944C-0.259228 184.549 -0.124908 186.362 0.748171 187.672C2.25927 189.955 8.03502 193.615 13.8108 195.966C14.6503 196.302 14.6838 196.47 14.8853 199.626C15.0196 201.439 15.2547 204.73 15.4226 206.946C15.5905 209.163 15.8927 213.159 16.0942 215.845C17.1688 229.747 18.2097 238.747 18.9149 239.653C19.2171 240.023 20.5603 240.09 26.6719 239.888C34.9326 239.62 35.134 239.553 34.7311 237.403C34.6303 236.765 34.7647 233.609 35.0333 230.352C35.6042 224.005 36.4437 210.775 36.7795 202.682C36.9138 199.962 37.1152 197.611 37.216 197.477C37.3167 197.309 38.8614 196.839 40.6076 196.402C42.3537 195.966 44.8386 195.093 46.0811 194.455C50.0435 192.373 54.0731 187.772 53.5694 185.825C53.2336 184.549 52.3605 184.347 47.0213 184.246C42.3537 184.179 41.3799 184.011 42.2866 183.44C42.9246 183.038 43.9656 180.62 43.9656 179.478C43.9656 176.993 41.4135 174.81 37.9548 174.34C36.9138 174.206 35.9735 174.105 35.8392 174.139C35.4698 174.24 35.5034 173.937 36.2422 171.352C37.5182 166.852 36.7459 162.453 34.496 161.647C33.2536 161.211 32.6827 161.546 31.8432 163.192C30.3993 165.979 30.7351 172.527 32.3805 173.87C32.8506 174.24 32.7163 174.374 31.6081 174.878C28.4852 176.288 28.3845 179.008 31.2723 182.668L32.2797 183.944H28.3509C23.8512 183.944 24.2541 184.347 25.2951 180.586C26.4368 176.657 25.9667 174.139 22.4072 165.341C19.5529 158.323 19.385 157.416 19.4186 149.894C19.4522 146.402 19.5194 143.48 19.6201 143.38C19.6873 143.279 23.0453 143.245 27.0413 143.279L34.2945 143.346L34.0595 141.398C33.5558 137.369 30.7351 127.866 29.0225 124.474C27.78 122.023 28.418 122.157 18.0754 122.157H8.70662L8.16934 122.997ZM20.2581 166.583C22.7766 173.837 23.2803 176.053 23.0788 179.377C22.8102 183.709 22.9109 183.608 17.7732 183.608H13.4078L12.837 182.702C12.4004 182.03 12.1989 180.922 12.1318 178.269C11.9975 174.81 12.031 174.575 13.5085 170.009C14.348 167.423 15.5905 163.427 16.2957 161.143L17.5717 157.013L18.0083 159.229C18.2769 160.472 19.2843 163.763 20.2581 166.583ZM35.1005 167.826C34.9997 168.833 34.6639 170.411 34.3281 171.352L33.7573 173.031L33.1864 170.68C32.3469 167.255 32.3805 164.77 33.2871 163.628L33.9923 162.722L34.6639 164.334C35.134 165.576 35.2684 166.449 35.1005 167.826ZM38.7943 176.254C42.3537 177.161 43.3947 180.049 41.0777 182.601C40.3725 183.373 39.5666 183.944 39.13 183.944C37.9548 183.944 35.4027 183.038 33.9252 182.131C32.179 181.023 31.4738 179.915 31.6081 178.504C31.7089 177.564 31.9439 177.295 33.22 176.657C34.9326 175.818 36.578 175.717 38.7943 176.254ZM34.3953 185.892C43.0925 186.026 50.3793 186.261 50.6144 186.396C51.2524 186.832 51.0845 187.537 50.0099 188.78C47.4915 191.634 41.9508 194.253 36.4101 195.193C32.5484 195.865 23.7504 195.966 19.9223 195.395C16.7994 194.925 11.9975 193.347 8.20292 191.5C3.66963 189.283 0.513111 186.194 2.09137 185.489C2.29285 185.388 6.12096 185.388 10.5535 185.489C14.9861 185.59 25.7316 185.791 34.3953 185.892ZM20.9969 197.578C23.4482 197.947 26.2353 198.081 29.7612 197.981L34.9326 197.88L34.7647 198.719C34.5632 199.76 34.0595 208.693 33.3879 222.897C33.1192 228.908 32.7834 234.751 32.6827 235.892L32.4812 238.008H26.6719C21.2319 238.008 20.7954 237.974 20.4596 237.37C20.0566 236.598 19.6537 232.769 18.9485 223.569C18.3441 215.644 17.2023 202.01 16.9001 199.122C16.7322 197.678 16.7994 197.04 17.0344 197.04C17.2359 197.04 19.0157 197.275 20.9969 197.578Z" fill="black"/>
</svg>
