<svg width="135" height="92" viewBox="0 0 135 92" fill="none" xmlns="http://www.w3.org/2000/svg">
<path d="M108.958 91.8426C118.492 88.8181 127.035 83.6995 134.049 76.5604C135.51 75.0726 135.241 72.876 133.561 71.6944C126.907 67.013 120.252 62.3312 113.598 57.6493C110.361 55.3716 107.138 60.6118 110.373 62.8869C113.939 65.3962 117.506 67.9055 121.072 70.4148C82.4596 74.8035 38.9973 65.1305 16.723 30.5805C11.1804 21.9832 7.49678 12.4704 6.04521 2.34327C5.48283 -1.58122 -0.520883 -0.197016 0.0364862 3.69546C2.76118 22.7121 13.3081 39.9393 27.7581 52.4186C43.9644 66.4147 64.3275 74.0361 85.4504 76.6159C98.1656 78.1687 111.004 77.8206 123.7 76.2718C125.235 76.0847 125.951 75.0587 126.034 73.9061C126.394 74.1592 126.753 74.4122 127.113 74.6654C121.458 79.7109 114.895 83.5324 107.603 85.8456C103.847 87.0377 105.179 93.0413 108.958 91.8426Z" fill="#231F20"/>
</svg>
